<svg aria-hidden="true" style="position: absolute; width: 0; height: 0; overflow: hidden;" version="1.1" xmlns="http://www.w3.org/2000/svg" xmlns:xlink="http://www.w3.org/1999/xlink">
<defs>
<symbol id="icon-Text" viewBox="0 0 65 32">
<path d="M1.091 10.323v-9.009h3.15c0.628 0 1.145 0.109 1.553 0.325 0.408 0.214 0.711 0.503 0.911 0.867 0.199 0.361 0.299 0.761 0.299 1.201 0 0.387-0.069 0.707-0.207 0.959-0.135 0.252-0.314 0.452-0.537 0.598-0.22 0.147-0.459 0.255-0.717 0.325v0.088c0.276 0.018 0.553 0.114 0.831 0.29s0.512 0.428 0.699 0.757c0.188 0.328 0.282 0.73 0.282 1.205 0 0.452-0.103 0.858-0.308 1.218s-0.529 0.647-0.972 0.858c-0.443 0.211-1.019 0.317-1.729 0.317h-3.255zM2.182 9.355h2.164c0.713 0 1.218-0.138 1.518-0.413 0.302-0.279 0.453-0.616 0.453-1.012 0-0.305-0.078-0.587-0.233-0.845-0.155-0.261-0.377-0.469-0.664-0.625-0.287-0.158-0.628-0.238-1.021-0.238h-2.217v3.132zM2.182 5.273h2.023c0.328 0 0.625-0.065 0.889-0.194 0.267-0.129 0.478-0.311 0.633-0.545 0.158-0.235 0.238-0.51 0.238-0.827 0-0.396-0.138-0.732-0.413-1.007-0.276-0.279-0.713-0.418-1.311-0.418h-2.059v2.991zM11.839 10.463c-0.651 0-1.213-0.144-1.685-0.431-0.469-0.29-0.831-0.695-1.086-1.214-0.252-0.522-0.378-1.129-0.378-1.821s0.126-1.302 0.378-1.83c0.255-0.531 0.61-0.944 1.065-1.24 0.457-0.299 0.991-0.449 1.601-0.449 0.352 0 0.699 0.059 1.042 0.176s0.655 0.308 0.937 0.572c0.281 0.261 0.506 0.607 0.673 1.038s0.251 0.962 0.251 1.592v0.44h-5.208v-0.897h4.153c0-0.381-0.076-0.721-0.229-1.021-0.15-0.299-0.364-0.535-0.642-0.708-0.276-0.173-0.601-0.26-0.977-0.26-0.414 0-0.771 0.103-1.073 0.308-0.299 0.202-0.529 0.466-0.691 0.792s-0.242 0.675-0.242 1.047v0.598c0 0.51 0.088 0.943 0.264 1.298 0.179 0.352 0.427 0.62 0.743 0.805 0.317 0.182 0.685 0.273 1.104 0.273 0.273 0 0.519-0.038 0.739-0.114 0.223-0.079 0.415-0.196 0.576-0.352 0.161-0.158 0.286-0.355 0.374-0.589l1.003 0.282c-0.106 0.34-0.283 0.639-0.532 0.897-0.249 0.255-0.557 0.455-0.924 0.598-0.367 0.141-0.779 0.211-1.236 0.211zM17.254 6.258v4.065h-1.038v-6.757h1.003v1.056h0.088c0.158-0.343 0.399-0.619 0.721-0.827 0.323-0.211 0.739-0.317 1.249-0.317 0.457 0 0.858 0.094 1.201 0.282 0.343 0.185 0.61 0.466 0.801 0.845 0.191 0.375 0.286 0.85 0.286 1.425v4.293h-1.038v-4.223c0-0.531-0.138-0.944-0.414-1.24-0.276-0.299-0.654-0.449-1.135-0.449-0.331 0-0.628 0.072-0.889 0.216-0.258 0.144-0.462 0.353-0.611 0.629s-0.224 0.61-0.224 1.003zM26.295 10.463c-0.651 0-1.213-0.144-1.685-0.431-0.469-0.29-0.831-0.695-1.087-1.214-0.252-0.522-0.378-1.129-0.378-1.821s0.126-1.302 0.378-1.83c0.255-0.531 0.61-0.944 1.065-1.24 0.457-0.299 0.991-0.449 1.601-0.449 0.352 0 0.699 0.059 1.042 0.176s0.655 0.308 0.937 0.572c0.282 0.261 0.506 0.607 0.673 1.038s0.251 0.962 0.251 1.592v0.44h-5.208v-0.897h4.153c0-0.381-0.076-0.721-0.229-1.021-0.15-0.299-0.364-0.535-0.642-0.708-0.276-0.173-0.601-0.26-0.977-0.26-0.414 0-0.771 0.103-1.073 0.308-0.299 0.202-0.529 0.466-0.691 0.792s-0.242 0.675-0.242 1.047v0.598c0 0.51 0.088 0.943 0.264 1.298 0.179 0.352 0.427 0.62 0.743 0.805 0.317 0.182 0.685 0.273 1.104 0.273 0.273 0 0.519-0.038 0.739-0.114 0.223-0.079 0.415-0.196 0.576-0.352 0.161-0.158 0.286-0.355 0.374-0.589l1.003 0.282c-0.106 0.34-0.283 0.639-0.532 0.897-0.249 0.255-0.557 0.455-0.924 0.598-0.367 0.141-0.779 0.211-1.236 0.211zM33.681 3.566v0.88h-3.642v-0.88h3.642zM31.129 10.323v-7.689c0-0.387 0.091-0.71 0.273-0.968s0.418-0.452 0.708-0.581c0.29-0.129 0.597-0.194 0.919-0.194 0.255 0 0.463 0.021 0.625 0.062s0.282 0.079 0.361 0.114l-0.299 0.897c-0.053-0.018-0.126-0.040-0.22-0.066-0.091-0.026-0.211-0.040-0.361-0.040-0.343 0-0.591 0.087-0.743 0.26-0.15 0.173-0.224 0.427-0.224 0.761v7.443h-1.038zM35.136 10.323v-6.757h1.038v6.757h-1.038zM35.663 2.44c-0.202 0-0.377-0.069-0.523-0.207-0.144-0.138-0.216-0.304-0.216-0.497s0.072-0.359 0.216-0.497c0.147-0.138 0.321-0.207 0.523-0.207s0.375 0.069 0.519 0.207c0.147 0.138 0.22 0.304 0.22 0.497s-0.073 0.359-0.22 0.497c-0.144 0.138-0.317 0.207-0.519 0.207zM41.014 3.566v0.88h-3.502v-0.88h3.502zM38.533 1.947h1.038v6.44c0 0.293 0.043 0.513 0.127 0.66 0.088 0.144 0.199 0.24 0.334 0.29 0.138 0.047 0.283 0.070 0.435 0.070 0.114 0 0.208-0.006 0.282-0.018 0.073-0.015 0.132-0.026 0.176-0.035l0.211 0.933c-0.070 0.026-0.169 0.053-0.295 0.079-0.126 0.029-0.286 0.044-0.479 0.044-0.293 0-0.581-0.063-0.862-0.189-0.279-0.126-0.51-0.318-0.695-0.576-0.182-0.258-0.273-0.584-0.273-0.977v-6.721zM47.24 5.079l-0.933 0.264c-0.059-0.155-0.145-0.306-0.26-0.453-0.111-0.15-0.264-0.273-0.458-0.37s-0.441-0.145-0.743-0.145c-0.414 0-0.758 0.095-1.034 0.286-0.273 0.188-0.409 0.427-0.409 0.717 0 0.258 0.094 0.462 0.282 0.611s0.481 0.274 0.88 0.374l1.003 0.246c0.604 0.147 1.054 0.371 1.35 0.673 0.296 0.299 0.444 0.685 0.444 1.157 0 0.387-0.111 0.733-0.334 1.038-0.22 0.305-0.528 0.545-0.924 0.721s-0.856 0.264-1.381 0.264c-0.689 0-1.259-0.15-1.711-0.449s-0.738-0.736-0.858-1.311l0.985-0.246c0.094 0.364 0.271 0.636 0.532 0.818 0.264 0.182 0.609 0.273 1.034 0.273 0.484 0 0.868-0.103 1.153-0.308 0.287-0.208 0.431-0.457 0.431-0.748 0-0.235-0.082-0.431-0.246-0.589-0.164-0.161-0.417-0.282-0.757-0.361l-1.126-0.264c-0.619-0.147-1.073-0.374-1.364-0.682-0.287-0.311-0.431-0.699-0.431-1.166 0-0.381 0.107-0.718 0.321-1.012 0.217-0.293 0.512-0.523 0.884-0.691 0.375-0.167 0.801-0.251 1.276-0.251 0.669 0 1.194 0.147 1.575 0.44 0.384 0.293 0.657 0.68 0.818 1.161zM3.501 29.044c-0.563 0-1.060-0.142-1.491-0.427-0.431-0.287-0.768-0.692-1.012-1.214-0.243-0.525-0.365-1.145-0.365-1.861 0-0.71 0.122-1.326 0.365-1.848s0.582-0.925 1.016-1.21c0.434-0.285 0.935-0.427 1.504-0.427 0.44 0 0.787 0.073 1.043 0.22 0.258 0.144 0.455 0.308 0.589 0.493 0.138 0.182 0.245 0.331 0.321 0.449h0.088v-3.326h1.038v9.009h-1.003v-1.038h-0.123c-0.076 0.123-0.185 0.279-0.325 0.466-0.141 0.185-0.342 0.35-0.603 0.497-0.261 0.144-0.609 0.216-1.043 0.216zM3.642 28.111c0.416 0 0.768-0.109 1.056-0.326 0.287-0.22 0.506-0.523 0.655-0.911 0.15-0.39 0.224-0.84 0.224-1.35 0-0.504-0.073-0.946-0.22-1.324-0.147-0.381-0.364-0.677-0.651-0.889-0.287-0.214-0.642-0.321-1.065-0.321-0.44 0-0.806 0.113-1.1 0.339-0.29 0.223-0.509 0.526-0.655 0.911-0.144 0.381-0.216 0.809-0.216 1.284 0 0.481 0.073 0.918 0.22 1.311 0.15 0.39 0.369 0.701 0.66 0.933 0.293 0.229 0.657 0.343 1.091 0.343zM11.477 29.044c-0.651 0-1.213-0.144-1.685-0.431-0.469-0.29-0.831-0.695-1.086-1.214-0.252-0.522-0.378-1.129-0.378-1.821s0.126-1.302 0.378-1.83c0.255-0.531 0.61-0.944 1.065-1.24 0.457-0.299 0.991-0.449 1.601-0.449 0.352 0 0.699 0.059 1.043 0.176s0.655 0.308 0.937 0.572c0.282 0.261 0.506 0.607 0.673 1.038s0.251 0.962 0.251 1.592v0.44h-5.208v-0.897h4.152c0-0.381-0.076-0.721-0.229-1.021-0.15-0.299-0.364-0.535-0.642-0.708-0.276-0.173-0.601-0.259-0.977-0.259-0.413 0-0.771 0.103-1.073 0.308-0.299 0.202-0.529 0.466-0.691 0.792s-0.242 0.674-0.242 1.047v0.598c0 0.51 0.088 0.943 0.264 1.298 0.179 0.352 0.427 0.62 0.743 0.805 0.317 0.182 0.685 0.273 1.104 0.273 0.273 0 0.519-0.038 0.739-0.114 0.223-0.079 0.415-0.197 0.576-0.352 0.161-0.158 0.286-0.355 0.374-0.589l1.003 0.282c-0.106 0.34-0.283 0.639-0.532 0.897-0.249 0.255-0.557 0.454-0.924 0.598-0.367 0.141-0.779 0.211-1.236 0.211zM20.639 23.66l-0.933 0.264c-0.059-0.155-0.145-0.306-0.259-0.453-0.111-0.15-0.264-0.273-0.457-0.369s-0.441-0.145-0.743-0.145c-0.413 0-0.758 0.095-1.034 0.286-0.273 0.188-0.409 0.427-0.409 0.717 0 0.258 0.094 0.462 0.282 0.611s0.481 0.274 0.88 0.374l1.003 0.246c0.604 0.147 1.054 0.371 1.35 0.673 0.296 0.299 0.444 0.685 0.444 1.157 0 0.387-0.111 0.733-0.334 1.038-0.22 0.305-0.528 0.545-0.924 0.721s-0.856 0.264-1.381 0.264c-0.689 0-1.26-0.15-1.711-0.449s-0.737-0.736-0.858-1.311l0.985-0.246c0.094 0.364 0.271 0.636 0.532 0.818 0.264 0.182 0.608 0.273 1.034 0.273 0.484 0 0.868-0.103 1.152-0.308 0.287-0.208 0.431-0.457 0.431-0.748 0-0.235-0.082-0.431-0.246-0.59-0.164-0.161-0.416-0.282-0.757-0.361l-1.126-0.264c-0.619-0.147-1.073-0.374-1.364-0.682-0.287-0.311-0.431-0.699-0.431-1.166 0-0.381 0.107-0.719 0.321-1.012 0.217-0.293 0.512-0.523 0.884-0.691 0.375-0.167 0.801-0.251 1.276-0.251 0.669 0 1.194 0.147 1.575 0.44 0.384 0.293 0.657 0.68 0.818 1.161zM25.070 29.044c-0.634 0-1.179-0.15-1.636-0.449s-0.809-0.711-1.056-1.236c-0.246-0.525-0.369-1.125-0.369-1.799 0-0.686 0.126-1.292 0.378-1.817 0.255-0.528 0.61-0.94 1.065-1.236 0.457-0.299 0.991-0.449 1.601-0.449 0.475 0 0.903 0.088 1.284 0.264s0.694 0.422 0.937 0.739 0.394 0.686 0.453 1.109h-1.038c-0.079-0.308-0.255-0.581-0.528-0.818-0.27-0.241-0.633-0.361-1.091-0.361-0.405 0-0.76 0.106-1.065 0.317-0.302 0.208-0.538 0.503-0.708 0.884-0.167 0.378-0.251 0.823-0.251 1.333 0 0.522 0.082 0.977 0.246 1.364 0.167 0.387 0.402 0.688 0.704 0.902 0.305 0.214 0.663 0.321 1.073 0.321 0.27 0 0.515-0.047 0.735-0.141s0.406-0.229 0.559-0.405c0.152-0.176 0.261-0.387 0.326-0.633h1.038c-0.059 0.399-0.204 0.758-0.435 1.078-0.229 0.317-0.532 0.569-0.911 0.757-0.375 0.185-0.812 0.277-1.311 0.277zM29.244 28.903v-6.757h1.003v1.021h0.070c0.123-0.334 0.346-0.606 0.669-0.814s0.686-0.312 1.091-0.312c0.076 0 0.172 0.001 0.286 0.004s0.201 0.007 0.26 0.013v1.056c-0.035-0.009-0.116-0.022-0.242-0.040-0.123-0.021-0.254-0.031-0.392-0.031-0.328 0-0.622 0.069-0.88 0.207-0.255 0.135-0.457 0.323-0.607 0.563-0.147 0.238-0.22 0.509-0.22 0.814v4.276h-1.038zM33.853 28.903v-6.757h1.038v6.757h-1.038zM34.381 21.020c-0.202 0-0.377-0.069-0.523-0.207-0.144-0.138-0.216-0.304-0.216-0.497s0.072-0.359 0.216-0.497c0.147-0.138 0.321-0.207 0.523-0.207s0.375 0.069 0.519 0.207c0.147 0.138 0.22 0.303 0.22 0.497s-0.073 0.359-0.22 0.497c-0.144 0.138-0.317 0.207-0.519 0.207zM36.793 31.437v-9.29h1.003v1.073h0.123c0.076-0.117 0.182-0.267 0.317-0.449 0.138-0.185 0.334-0.349 0.59-0.493 0.258-0.147 0.607-0.22 1.047-0.22 0.569 0 1.070 0.142 1.504 0.427s0.773 0.688 1.016 1.21c0.243 0.522 0.365 1.138 0.365 1.848 0 0.716-0.122 1.336-0.365 1.861-0.243 0.522-0.581 0.927-1.012 1.214-0.431 0.285-0.928 0.427-1.491 0.427-0.434 0-0.782-0.072-1.042-0.216-0.261-0.147-0.462-0.312-0.603-0.497-0.141-0.188-0.249-0.343-0.326-0.466h-0.088v3.572h-1.038zM37.813 25.525c0 0.51 0.075 0.96 0.224 1.35 0.15 0.387 0.368 0.691 0.655 0.911 0.287 0.217 0.639 0.326 1.056 0.326 0.434 0 0.796-0.114 1.087-0.343 0.293-0.232 0.513-0.543 0.66-0.933 0.15-0.393 0.224-0.83 0.224-1.311 0-0.475-0.073-0.903-0.22-1.284-0.144-0.384-0.362-0.688-0.655-0.911-0.29-0.226-0.655-0.339-1.095-0.339-0.422 0-0.777 0.107-1.064 0.321-0.287 0.211-0.504 0.507-0.651 0.889-0.147 0.378-0.22 0.82-0.22 1.324zM47.28 22.147v0.88h-3.501v-0.88h3.501zM44.799 20.528h1.038v6.44c0 0.293 0.043 0.513 0.128 0.66 0.088 0.144 0.199 0.241 0.334 0.29 0.138 0.047 0.283 0.070 0.435 0.070 0.114 0 0.208-0.006 0.282-0.018 0.073-0.015 0.132-0.026 0.176-0.035l0.211 0.933c-0.070 0.026-0.169 0.053-0.295 0.079-0.126 0.029-0.286 0.044-0.479 0.044-0.293 0-0.581-0.063-0.862-0.189-0.279-0.126-0.51-0.318-0.695-0.576-0.182-0.258-0.273-0.584-0.273-0.977v-6.721zM48.841 28.903v-6.757h1.038v6.757h-1.038zM49.369 21.020c-0.202 0-0.377-0.069-0.523-0.207-0.144-0.138-0.216-0.304-0.216-0.497s0.072-0.359 0.216-0.497c0.147-0.138 0.321-0.207 0.523-0.207s0.375 0.069 0.519 0.207c0.147 0.138 0.22 0.303 0.22 0.497s-0.073 0.359-0.22 0.497c-0.144 0.138-0.317 0.207-0.519 0.207zM54.526 29.044c-0.61 0-1.145-0.145-1.606-0.436-0.457-0.29-0.815-0.696-1.073-1.218-0.255-0.522-0.383-1.132-0.383-1.83 0-0.704 0.128-1.318 0.383-1.843 0.258-0.525 0.616-0.933 1.073-1.223 0.461-0.29 0.996-0.436 1.606-0.436s1.144 0.145 1.601 0.436c0.46 0.29 0.818 0.698 1.073 1.223 0.258 0.525 0.387 1.139 0.387 1.843 0 0.698-0.129 1.308-0.387 1.83-0.255 0.522-0.613 0.928-1.073 1.218-0.458 0.29-0.991 0.436-1.601 0.436zM54.526 28.111c0.463 0 0.845-0.119 1.144-0.356s0.52-0.55 0.664-0.937c0.144-0.387 0.216-0.806 0.216-1.258s-0.072-0.872-0.216-1.262c-0.144-0.39-0.365-0.705-0.664-0.946s-0.68-0.361-1.144-0.361c-0.463 0-0.845 0.12-1.144 0.361s-0.521 0.556-0.664 0.946c-0.144 0.39-0.216 0.811-0.216 1.262s0.072 0.871 0.216 1.258c0.144 0.387 0.365 0.699 0.664 0.937s0.68 0.356 1.144 0.356zM60.21 24.839v4.065h-1.038v-6.757h1.003v1.056h0.088c0.158-0.343 0.399-0.619 0.721-0.827 0.323-0.211 0.739-0.317 1.249-0.317 0.458 0 0.858 0.094 1.201 0.282 0.343 0.185 0.61 0.466 0.801 0.845 0.191 0.375 0.286 0.85 0.286 1.425v4.293h-1.038v-4.223c0-0.531-0.138-0.944-0.413-1.24-0.276-0.299-0.654-0.449-1.135-0.449-0.331 0-0.627 0.072-0.889 0.216-0.258 0.144-0.462 0.353-0.611 0.629s-0.224 0.61-0.224 1.003z"></path>
</symbol>
<symbol id="icon-Triangle_up" viewBox="0 0 48 32">
<path d="M47.699 24.796l-22.972-24.475c-0.402-0.428-1.053-0.428-1.454 0l-22.971 24.475c-0.402 0.428-0.402 1.122 0 1.55 0.193 0.206 0.455 0.321 0.727 0.321h45.943c0.568 0 1.029-0.491 1.029-1.096 0-0.291-0.108-0.569-0.301-0.775z"></path>
</symbol>
<symbol id="icon-Triangle_up1" viewBox="0 0 48 32">
<path d="M47.699 24.796l-22.972-24.475c-0.402-0.428-1.053-0.428-1.454 0l-22.971 24.475c-0.402 0.428-0.402 1.122 0 1.55 0.193 0.206 0.455 0.321 0.727 0.321h45.943c0.568 0 1.029-0.491 1.029-1.096 0-0.291-0.108-0.569-0.301-0.775z"></path>
</symbol>
<symbol id="icon-Twiter" viewBox="0 0 32 32">
<path d="M15.615 11.196l0.058 0.953-0.963-0.117c-3.507-0.447-6.57-1.965-9.172-4.513l-1.272-1.264-0.328 0.934c-0.694 2.081-0.25 4.28 1.195 5.758 0.771 0.817 0.597 0.934-0.732 0.447-0.462-0.156-0.867-0.272-0.906-0.214-0.135 0.136 0.328 1.906 0.694 2.607 0.501 0.973 1.522 1.926 2.64 2.49l0.944 0.447-1.118 0.019c-1.079 0-1.118 0.019-1.002 0.428 0.385 1.264 1.908 2.607 3.603 3.19l1.195 0.409-1.040 0.623c-1.541 0.895-3.353 1.401-5.164 1.439-0.867 0.019-1.58 0.097-1.58 0.156 0 0.195 2.351 1.284 3.719 1.712 4.104 1.264 8.979 0.72 12.64-1.439 2.601-1.537 5.202-4.591 6.416-7.547 0.655-1.576 1.31-4.455 1.31-5.836 0-0.895 0.058-1.012 1.137-2.081 0.636-0.622 1.233-1.303 1.349-1.498 0.193-0.37 0.173-0.37-0.809-0.039-1.638 0.584-1.869 0.506-1.060-0.37 0.597-0.622 1.31-1.751 1.31-2.081 0-0.058-0.289 0.039-0.617 0.214-0.347 0.195-1.118 0.486-1.696 0.661l-1.041 0.331-0.944-0.642c-0.52-0.35-1.252-0.739-1.638-0.856-0.983-0.272-2.485-0.233-3.372 0.078-2.409 0.875-3.931 3.132-3.757 5.602z"></path>
</symbol>
<symbol id="icon-VK" viewBox="0 0 32 32">
<path d="M17.308 22.871c0 0 0.481-0.053 0.728-0.312 0.226-0.238 0.218-0.687 0.218-0.687s-0.030-2.098 0.963-2.408c0.978-0.305 2.234 2.029 3.567 2.927 1.007 0.679 1.771 0.53 1.771 0.53l3.562-0.049c0 0 1.863-0.113 0.979-1.55-0.073-0.118-0.515-1.064-2.648-3.007-2.234-2.034-1.934-1.705 0.755-5.225 1.638-2.143 2.293-3.452 2.088-4.011-0.194-0.535-1.399-0.393-1.399-0.393l-4.009 0.024c0 0-0.297-0.040-0.518 0.090-0.215 0.127-0.355 0.422-0.355 0.422s-0.634 1.658-1.48 3.069c-1.786 2.975-2.499 3.133-2.791 2.948-0.679-0.431-0.51-1.731-0.51-2.654 0-2.884 0.446-4.087-0.867-4.398-0.436-0.104-0.756-0.172-1.872-0.183-1.431-0.014-2.641 0.005-3.327 0.334-0.457 0.219-0.809 0.708-0.593 0.736 0.265 0.035 0.865 0.159 1.183 0.584 0.411 0.549 0.396 1.781 0.396 1.781s0.236 3.395-0.552 3.817c-0.54 0.289-1.281-0.301-2.873-3.001-0.815-1.383-1.431-2.911-1.431-2.911s-0.119-0.286-0.331-0.439c-0.257-0.186-0.616-0.243-0.616-0.243l-3.81 0.024c0 0-0.573 0.015-0.783 0.26-0.187 0.216-0.014 0.666-0.014 0.666s2.983 6.851 6.361 10.304c3.098 3.165 6.614 2.957 6.614 2.957h1.594z"></path>
</symbol>
<symbol id="icon-WhatsApp" viewBox="0 0 32 32">
<path d="M16.056 29.231c7.321-0.003 13.275-5.958 13.277-13.277 0.001-3.548-1.378-6.884-3.885-9.393s-5.841-3.892-9.392-3.894c-7.319 0-13.275 5.956-13.278 13.277-0.001 2.34 0.61 4.624 1.772 6.638l-1.884 6.88 7.039-1.846c1.939 1.058 4.123 1.615 6.345 1.616h0.006zM10.031 25.211l-4.177 1.096 1.115-4.072-0.262-0.418c-1.105-1.757-1.688-3.788-1.687-5.873 0.002-6.085 4.953-11.035 11.040-11.035 2.948 0.001 5.719 1.15 7.802 3.236s3.23 4.859 3.229 7.807c-0.002 6.085-4.953 11.036-11.036 11.036h-0.005c-1.98-0.001-3.923-0.533-5.617-1.538l-0.403-0.239zM22.291 18.813c0.231 0.112 0.388 0.187 0.454 0.299 0.083 0.138 0.083 0.803-0.193 1.578s-1.602 1.482-2.239 1.577c-0.572 0.085-1.295 0.121-2.090-0.131-0.482-0.153-1.1-0.357-1.891-0.699-3.11-1.343-5.212-4.357-5.609-4.927-0.028-0.040-0.047-0.068-0.058-0.082l-0.003-0.004c-0.176-0.234-1.352-1.804-1.352-3.428 0-1.528 0.751-2.329 1.096-2.698 0.024-0.025 0.045-0.049 0.065-0.070 0.304-0.332 0.664-0.415 0.885-0.415s0.443 0.002 0.636 0.012c0.024 0.001 0.049 0.001 0.074 0.001 0.193-0.001 0.434-0.003 0.672 0.569 0.091 0.22 0.225 0.546 0.367 0.889 0.285 0.695 0.601 1.463 0.656 1.574 0.083 0.166 0.138 0.36 0.028 0.581-0.017 0.033-0.032 0.065-0.047 0.095-0.083 0.17-0.144 0.294-0.285 0.459-0.055 0.065-0.113 0.134-0.17 0.204-0.114 0.139-0.228 0.278-0.328 0.377-0.166 0.165-0.339 0.345-0.145 0.677s0.859 1.419 1.846 2.298c1.060 0.946 1.982 1.345 2.449 1.548 0.091 0.040 0.165 0.072 0.219 0.099 0.332 0.166 0.525 0.138 0.719-0.083s0.829-0.969 1.051-1.301c0.221-0.332 0.442-0.277 0.746-0.166s1.935 0.913 2.267 1.079c0.065 0.032 0.125 0.062 0.181 0.089z"></path>
</symbol>
<symbol id="icon-Phone" viewBox="0 0 32 32">
<path d="M22.667 17.791l-4.695 2.352c-0.295 0.17-0.658 0.17-0.952 0-2.012-1.392-3.755-3.137-5.143-5.152-0.17-0.295-0.17-0.658 0-0.952l2.333-4.705-3.333-6.667h-8.21v0.952c0 14.202 11.513 25.714 25.714 25.714h0.952v-8.209l-6.667-3.333zM27.429 27.429c-12.416-0.487-22.37-10.441-22.857-22.857h5.124l2.381 4.762-1.905 3.81c-0.456 0.916-0.387 2.006 0.181 2.857 1.515 2.236 3.43 4.173 5.648 5.714 0.851 0.568 1.941 0.637 2.857 0.181l3.809-1.905 4.762 2.381v5.057z"></path>
</symbol>
<symbol id="icon-Rectangle" viewBox="0 0 32 32">
<path d="M31.799 8.358l-15.314 16.317c-0.268 0.285-0.702 0.285-0.97 0l-15.314-16.317c-0.268-0.285-0.268-0.748 0-1.033 0.129-0.137 0.303-0.214 0.485-0.214h30.629c0.379 0 0.686 0.327 0.686 0.731 0 0.194-0.072 0.38-0.201 0.517z"></path>
</symbol>
<symbol id="icon-Search" viewBox="0 0 32 32">
<path d="M13.64 24.613c-6.060 0-10.973-4.913-10.973-10.973s4.913-10.973 10.973-10.973c6.060 0 10.973 4.913 10.973 10.973 0 2.621-0.919 5.028-2.453 6.915l8.174 8.174c0.443 0.443 0.443 1.162 0 1.605s-1.162 0.443-1.605 0l-8.174-8.174c-1.887 1.533-4.294 2.453-6.915 2.453zM13.64 22.342c4.806 0 8.703-3.896 8.703-8.703s-3.896-8.703-8.703-8.703c-4.806 0-8.703 3.896-8.703 8.703s3.896 8.703 8.703 8.703z"></path>
</symbol>
<symbol id="icon-Telegram" viewBox="0 0 32 32">
<path d="M12.697 26.345c0.613 0 0.884-0.28 1.226-0.613l2.945-2.864 6.128 4.527c1.128 0.622 1.942 0.3 2.223-1.047l4.023-18.956c0.412-1.651-0.629-2.4-1.708-1.91l-23.621 9.108c-1.612 0.647-1.603 1.546-0.294 1.947l6.062 1.892 14.034-8.854c0.663-0.402 1.271-0.186 0.771 0.257l-11.371 10.262-0.417 6.251z"></path>
</symbol>
<symbol id="icon-Defaults_thin_left" viewBox="0 0 32 32">
<path d="M10.48 10.822c-0.249-0.208-0.653-0.208-0.902 0l-6.724 5.599-0.075 0.075c-0.174 0.211-0.145 0.503 0.086 0.686l6.724 5.338 0.090 0.060c0.253 0.139 0.596 0.111 0.812-0.078l0.072-0.075c0.166-0.21 0.134-0.496-0.093-0.676l-5.564-4.417 25.241-0.011c0.296-0.056 0.521-0.329 0.521-0.656 0-0.368-0.284-0.667-0.635-0.667h-24.869l5.317-4.426 0.074-0.074c0.172-0.207 0.148-0.493-0.074-0.678z"></path>
</symbol>
<symbol id="icon-Defaults_thin_right" viewBox="0 0 32 32">
<path d="M21.52 10.822c0.249-0.208 0.653-0.208 0.903 0l6.724 5.599 0.075 0.075c0.174 0.211 0.145 0.503-0.086 0.686l-6.724 5.338-0.090 0.060c-0.253 0.139-0.596 0.111-0.812-0.078l-0.072-0.075c-0.166-0.21-0.133-0.496 0.093-0.676l5.564-4.417-24.574-0.011c-0.296-0.056-0.521-0.329-0.521-0.656 0-0.368 0.284-0.667 0.635-0.667h24.202l-5.317-4.426-0.074-0.074c-0.172-0.207-0.148-0.493 0.074-0.678z"></path>
</symbol>
<symbol id="icon-Delete" viewBox="0 0 32 32">
<path d="M15.333 4.889c-0.613 0-1.111 0.498-1.111 1.111v1.111h4.444v-1.111c0-0.613-0.498-1.111-1.111-1.111h-2.222zM20.889 7.111h5.555c0.613 0 1.111 0.498 1.111 1.111s-0.498 1.111-1.111 1.111h-0.117l-1.893 17.034c-0.187 1.689-1.613 2.966-3.312 2.966h-9.356c-1.699 0-3.126-1.277-3.313-2.966l-1.892-17.034h-0.117c-0.613 0-1.111-0.498-1.111-1.111s0.498-1.111 1.111-1.111h5.556v-1.111c0-1.841 1.492-3.333 3.333-3.333h2.222c1.841 0 3.333 1.492 3.333 3.333v1.111zM24.092 9.333h-15.296l1.866 16.789c0.063 0.563 0.539 0.989 1.104 0.989h9.356c0.565 0 1.041-0.425 1.104-0.989l1.866-16.789zM14.222 12.667c-0.613 0-1.111 0.498-1.111 1.111v8.889c0 0.613 0.498 1.111 1.111 1.111s1.111-0.498 1.111-1.111v-8.889c0-0.613-0.498-1.111-1.111-1.111zM18.667 12.667c-0.613 0-1.111 0.498-1.111 1.111v8.889c0 0.613 0.498 1.111 1.111 1.111s1.111-0.498 1.111-1.111v-8.889c0-0.613-0.498-1.111-1.111-1.111z"></path>
</symbol>
<symbol id="icon-Filter" viewBox="0 0 32 32">
<path d="M3.619 8.447h1.721c0.423 1.503 1.794 2.542 3.356 2.542s2.933-1.039 3.356-2.542h16.33c0.526 0 0.952-0.426 0.952-0.952s-0.426-0.952-0.952-0.952h-16.324c-0.423-1.503-1.794-2.542-3.356-2.542s-2.933 1.039-3.356 2.542h-1.727c-0.526 0-0.952 0.426-0.952 0.952s0.426 0.952 0.952 0.952zM8.698 5.907c0.877 0 1.587 0.711 1.587 1.587s-0.711 1.587-1.587 1.587c-0.877 0-1.587-0.711-1.587-1.587s0.711-1.587 1.587-1.587zM28.381 15.431h-9.13c-0.52-1.343-1.811-2.228-3.251-2.228s-2.731 0.885-3.251 2.228h-9.13c-0.526 0-0.952 0.426-0.952 0.952s0.426 0.952 0.952 0.952h8.952c0.311 1.65 1.752 2.846 3.432 2.846s3.121-1.195 3.432-2.846h8.946c0.526 0 0.952-0.426 0.952-0.952s-0.426-0.952-0.952-0.952zM16 18.288c-0.877 0-1.587-0.711-1.587-1.587s0.711-1.587 1.587-1.587c0.877 0 1.587 0.711 1.587 1.587s-0.711 1.587-1.587 1.587zM26.66 24.32h1.721c0.526 0 0.952 0.426 0.952 0.952s-0.426 0.952-0.952 0.952h-1.727c-0.423 1.503-1.794 2.542-3.356 2.542s-2.933-1.039-3.356-2.542h-16.324c-0.526 0-0.952-0.426-0.952-0.952s0.426-0.952 0.952-0.952h16.33c0.423-1.503 1.794-2.542 3.356-2.542s2.933 1.039 3.355 2.542zM21.714 25.272c0 0.877 0.711 1.587 1.587 1.587s1.587-0.711 1.587-1.587c0-0.877-0.711-1.587-1.587-1.587s-1.587 0.711-1.587 1.587z"></path>
</symbol>
<symbol id="icon-Heart" viewBox="0 0 32 32">
<path d="M15.932 28l-11.050-10.998c-2.954-2.99-2.954-7.79 0-10.781 1.422-1.422 3.354-2.222 5.368-2.222s3.946 0.799 5.369 2.222l0.313 0.321 0.313-0.321c1.422-1.422 3.354-2.222 5.369-2.222s3.946 0.799 5.368 2.222c2.949 2.992 2.949 7.788 0 10.781l-11.050 10.998zM10.246 5.881c-1.513-0.005-2.965 0.598-4.028 1.672-2.219 2.253-2.219 5.863 0 8.116l9.713 9.666 9.713-9.666c2.219-2.253 2.219-5.863 0-8.116-1.067-1.064-2.514-1.663-4.023-1.663s-2.956 0.598-4.023 1.663l-1.668 1.644-1.658-1.635c-1.065-1.073-2.514-1.678-4.028-1.682z"></path>
</symbol>
<symbol id="icon-Icon" viewBox="0 0 32 32">
<path d="M6.089 4.571l-0.482-1.977c-0.376-1.525-1.721-2.594-3.264-2.594h-1.615v2.286h1.615c0.528-0.016 0.995 0.346 1.122 0.869l3.993 16.549 0.415 1.703c0.378 1.537 1.742 2.61 3.298 2.594h15.357v-2.286h-15.357c-0.528 0.016-0.995-0.346-1.122-0.869l-0.135-0.572 16.613-3.988c1.228-0.291 2.194-1.257 2.502-2.503l2.244-9.211h-25.183zM26.898 13.234c-0.104 0.417-0.429 0.74-0.841 0.834l-16.658 3.989-2.748-11.2h21.807l-1.559 6.377zM6.336 28.571c0-1.894 1.507-3.428 3.365-3.428s3.365 1.535 3.365 3.428c0 1.894-1.507 3.428-3.365 3.428s-3.365-1.535-3.365-3.428zM8.58 28.571c0 0.631 0.502 1.143 1.122 1.143s1.122-0.512 1.122-1.143c0-0.631-0.502-1.143-1.122-1.143s-1.122 0.512-1.122 1.143zM20.053 27.259c0.521-1.281 1.748-2.116 3.109-2.116 1.858 0 3.365 1.535 3.365 3.428 0 1.387-0.82 2.637-2.077 3.168s-2.705 0.237-3.668-0.743c-0.962-0.98-1.25-2.455-0.729-3.736zM22.041 28.571c0 0.631 0.502 1.143 1.122 1.143s1.122-0.512 1.122-1.143-0.502-1.143-1.122-1.143c-0.62 0-1.122 0.512-1.122 1.143z"></path>
</symbol>
<symbol id="icon-arrow" viewBox="0 0 18 32">
<path d="M2.265 0.353c-0.531-0.483-1.358-0.469-1.871 0.032s-0.528 1.309-0.033 1.827l14.368 14.033-14.368 13.542c-0.495 0.518-0.48 1.326 0.033 1.827s1.34 0.515 1.871 0.032l16.020-15.401-16.020-15.893z"></path>
</symbol>
<symbol id="icon-arrow-1" viewBox="0 0 18 32">
<path d="M16.020 0.353c0.531-0.483 1.358-0.469 1.871 0.032s0.528 1.309 0.033 1.827l-14.368 14.033 14.368 13.542c0.494 0.518 0.48 1.326-0.033 1.827s-1.34 0.515-1.871 0.032l-16.020-15.401 16.020-15.893z"></path>
</symbol>
<symbol id="icon-arrow-2" viewBox="0 0 19 32">
<path d="M16.748 3.414c0.781-0.781 0.781-2.047 0-2.828s-2.047-0.781-2.828 0l-13.333 13.333c-0.781 0.781-0.781 2.047 0 2.828l13.333 13.333c0.781 0.781 2.047 0.781 2.828 0s0.781-2.047 0-2.828l-11.919-11.919 11.919-11.919z"></path>
</symbol>
<symbol id="icon-arrow-3" viewBox="0 0 19 32">
<path d="M0.586 3.414c-0.781-0.781-0.781-2.047 0-2.828s2.047-0.781 2.828 0l13.333 13.333c0.781 0.781 0.781 2.047 0 2.828l-13.333 13.333c-0.781 0.781-2.047 0.781-2.828 0s-0.781-2.047 0-2.828l11.919-11.919-11.919-11.919z"></path>
</symbol>
<symbol id="icon-arrow-4" viewBox="0 0 55 32">
<path d="M46.719 28.71c1.339 1.339 3.51 1.339 4.848 0s1.339-3.51 0-4.849l-22.857-22.857c-1.339-1.339-3.51-1.339-4.849 0l-22.857 22.857c-1.339 1.339-1.339 3.51 0 4.849s3.51 1.339 4.849 0l20.433-20.433 20.433 20.433z"></path>
</symbol>
<symbol id="icon-arrow-5" viewBox="0 0 55 32">
<path d="M46.719 1.004c1.339-1.339 3.51-1.339 4.848 0s1.339 3.51 0 4.849l-22.857 22.857c-1.339 1.339-3.51 1.339-4.849 0l-22.857-22.857c-1.339-1.339-1.339-3.51 0-4.849s3.51-1.339 4.849 0l20.433 20.433 20.433-20.433z"></path>
</symbol>
<symbol id="icon-instagram" viewBox="0 0 32 32">
<path d="M16 2.881c4.275 0 4.781 0.019 6.462 0.094 1.563 0.069 2.406 0.331 2.969 0.55 0.744 0.288 1.281 0.638 1.837 1.194 0.563 0.563 0.906 1.094 1.2 1.838 0.219 0.563 0.481 1.412 0.55 2.969 0.075 1.688 0.094 2.194 0.094 6.463s-0.019 4.781-0.094 6.463c-0.069 1.563-0.331 2.406-0.55 2.969-0.288 0.744-0.637 1.281-1.194 1.837-0.563 0.563-1.094 0.906-1.837 1.2-0.563 0.219-1.413 0.481-2.969 0.55-1.688 0.075-2.194 0.094-6.463 0.094s-4.781-0.019-6.463-0.094c-1.563-0.069-2.406-0.331-2.969-0.55-0.744-0.288-1.281-0.637-1.838-1.194-0.563-0.563-0.906-1.094-1.2-1.837-0.219-0.563-0.481-1.413-0.55-2.969-0.075-1.688-0.094-2.194-0.094-6.463s0.019-4.781 0.094-6.463c0.069-1.563 0.331-2.406 0.55-2.969 0.288-0.744 0.638-1.281 1.194-1.838 0.563-0.563 1.094-0.906 1.838-1.2 0.563-0.219 1.412-0.481 2.969-0.55 1.681-0.075 2.188-0.094 6.463-0.094zM16 0c-4.344 0-4.887 0.019-6.594 0.094-1.7 0.075-2.869 0.35-3.881 0.744-1.056 0.412-1.95 0.956-2.837 1.85-0.894 0.888-1.438 1.781-1.85 2.831-0.394 1.019-0.669 2.181-0.744 3.881-0.075 1.713-0.094 2.256-0.094 6.6s0.019 4.887 0.094 6.594c0.075 1.7 0.35 2.869 0.744 3.881 0.413 1.056 0.956 1.95 1.85 2.837 0.887 0.887 1.781 1.438 2.831 1.844 1.019 0.394 2.181 0.669 3.881 0.744 1.706 0.075 2.25 0.094 6.594 0.094s4.888-0.019 6.594-0.094c1.7-0.075 2.869-0.35 3.881-0.744 1.050-0.406 1.944-0.956 2.831-1.844s1.438-1.781 1.844-2.831c0.394-1.019 0.669-2.181 0.744-3.881 0.075-1.706 0.094-2.25 0.094-6.594s-0.019-4.887-0.094-6.594c-0.075-1.7-0.35-2.869-0.744-3.881-0.394-1.063-0.938-1.956-1.831-2.844-0.887-0.887-1.781-1.438-2.831-1.844-1.019-0.394-2.181-0.669-3.881-0.744-1.712-0.081-2.256-0.1-6.6-0.1v0z"></path>
<path d="M16 7.781c-4.537 0-8.219 3.681-8.219 8.219s3.681 8.219 8.219 8.219 8.219-3.681 8.219-8.219c0-4.537-3.681-8.219-8.219-8.219zM16 21.331c-2.944 0-5.331-2.387-5.331-5.331s2.387-5.331 5.331-5.331c2.944 0 5.331 2.387 5.331 5.331s-2.387 5.331-5.331 5.331z"></path>
<path d="M26.462 7.456c0 1.060-0.859 1.919-1.919 1.919s-1.919-0.859-1.919-1.919c0-1.060 0.859-1.919 1.919-1.919s1.919 0.859 1.919 1.919z"></path>
</symbol>
</defs>
</svg>
