<svg aria-hidden="true" style="position: absolute; width: 0; height: 0; overflow: hidden;" version="1.1" xmlns="http://www.w3.org/2000/svg" xmlns:xlink="http://www.w3.org/1999/xlink">
<defs>
<symbol id="icon-Triangle_up" viewBox="0 0 48 32">
<path d="M47.699 24.796l-22.972-24.475c-0.402-0.428-1.053-0.428-1.454 0l-22.971 24.475c-0.402 0.428-0.402 1.122 0 1.55 0.193 0.206 0.455 0.321 0.727 0.321h45.943c0.568 0 1.029-0.491 1.029-1.096 0-0.291-0.108-0.569-0.301-0.775z"></path>
</symbol>
<symbol id="icon-Triangle_up1" viewBox="0 0 48 32">
<path d="M47.699 24.796l-22.972-24.475c-0.402-0.428-1.053-0.428-1.454 0l-22.971 24.475c-0.402 0.428-0.402 1.122 0 1.55 0.193 0.206 0.455 0.321 0.727 0.321h45.943c0.568 0 1.029-0.491 1.029-1.096 0-0.291-0.108-0.569-0.301-0.775z"></path>
</symbol>
<symbol id="icon-Twiter" viewBox="0 0 32 32">
<path d="M15.615 11.196l0.058 0.953-0.963-0.117c-3.507-0.447-6.57-1.965-9.172-4.513l-1.272-1.264-0.328 0.934c-0.694 2.081-0.25 4.28 1.195 5.758 0.771 0.817 0.597 0.934-0.732 0.447-0.462-0.156-0.867-0.272-0.906-0.214-0.135 0.136 0.328 1.906 0.694 2.607 0.501 0.973 1.522 1.926 2.64 2.49l0.944 0.447-1.118 0.019c-1.079 0-1.118 0.019-1.002 0.428 0.385 1.264 1.908 2.607 3.603 3.19l1.195 0.409-1.040 0.623c-1.541 0.895-3.353 1.401-5.164 1.439-0.867 0.019-1.58 0.097-1.58 0.156 0 0.195 2.351 1.284 3.719 1.712 4.104 1.264 8.979 0.72 12.64-1.439 2.601-1.537 5.202-4.591 6.416-7.547 0.655-1.576 1.31-4.455 1.31-5.836 0-0.895 0.058-1.012 1.137-2.081 0.636-0.622 1.233-1.303 1.349-1.498 0.193-0.37 0.173-0.37-0.809-0.039-1.638 0.584-1.869 0.506-1.060-0.37 0.597-0.622 1.31-1.751 1.31-2.081 0-0.058-0.289 0.039-0.617 0.214-0.347 0.195-1.118 0.486-1.696 0.661l-1.041 0.331-0.944-0.642c-0.52-0.35-1.252-0.739-1.638-0.856-0.983-0.272-2.485-0.233-3.372 0.078-2.409 0.875-3.931 3.132-3.757 5.602z"></path>
</symbol>
<symbol id="icon-VK" viewBox="0 0 32 32">
<path d="M17.308 22.871c0 0 0.481-0.053 0.728-0.312 0.226-0.238 0.218-0.687 0.218-0.687s-0.030-2.098 0.963-2.408c0.978-0.305 2.234 2.029 3.567 2.927 1.007 0.679 1.771 0.53 1.771 0.53l3.562-0.049c0 0 1.863-0.113 0.979-1.55-0.073-0.118-0.515-1.064-2.648-3.007-2.234-2.034-1.934-1.705 0.755-5.225 1.638-2.143 2.293-3.452 2.088-4.011-0.194-0.535-1.399-0.393-1.399-0.393l-4.009 0.024c0 0-0.297-0.040-0.518 0.090-0.215 0.127-0.355 0.422-0.355 0.422s-0.634 1.658-1.48 3.069c-1.786 2.975-2.499 3.133-2.791 2.948-0.679-0.431-0.51-1.731-0.51-2.654 0-2.884 0.446-4.087-0.867-4.398-0.436-0.104-0.756-0.172-1.872-0.183-1.431-0.014-2.641 0.005-3.327 0.334-0.457 0.219-0.809 0.708-0.593 0.736 0.265 0.035 0.865 0.159 1.183 0.584 0.411 0.549 0.396 1.781 0.396 1.781s0.236 3.395-0.552 3.817c-0.54 0.289-1.281-0.301-2.873-3.001-0.815-1.383-1.431-2.911-1.431-2.911s-0.119-0.286-0.331-0.439c-0.257-0.186-0.616-0.243-0.616-0.243l-3.81 0.024c0 0-0.573 0.015-0.783 0.26-0.187 0.216-0.014 0.666-0.014 0.666s2.983 6.851 6.361 10.304c3.098 3.165 6.614 2.957 6.614 2.957h1.594z"></path>
</symbol>
<symbol id="icon-WhatsApp" viewBox="0 0 32 32">
<path d="M16.056 29.231c7.321-0.003 13.275-5.958 13.277-13.277 0.001-3.548-1.378-6.884-3.885-9.393s-5.841-3.892-9.392-3.894c-7.319 0-13.275 5.956-13.278 13.277-0.001 2.34 0.61 4.624 1.772 6.638l-1.884 6.88 7.039-1.846c1.939 1.058 4.123 1.615 6.345 1.616h0.006zM10.031 25.211l-4.177 1.096 1.115-4.072-0.262-0.418c-1.105-1.757-1.688-3.788-1.687-5.873 0.002-6.085 4.953-11.035 11.040-11.035 2.948 0.001 5.719 1.15 7.802 3.236s3.23 4.859 3.229 7.807c-0.002 6.085-4.953 11.036-11.036 11.036h-0.005c-1.98-0.001-3.923-0.533-5.617-1.538l-0.403-0.239zM22.291 18.813c0.231 0.112 0.388 0.187 0.454 0.299 0.083 0.138 0.083 0.803-0.193 1.578s-1.602 1.482-2.239 1.577c-0.572 0.085-1.295 0.121-2.090-0.131-0.482-0.153-1.1-0.357-1.891-0.699-3.11-1.343-5.212-4.357-5.609-4.927-0.028-0.040-0.047-0.068-0.058-0.082l-0.003-0.004c-0.176-0.234-1.352-1.804-1.352-3.428 0-1.528 0.751-2.329 1.096-2.698 0.024-0.025 0.045-0.049 0.065-0.070 0.304-0.332 0.664-0.415 0.885-0.415s0.443 0.002 0.636 0.012c0.024 0.001 0.049 0.001 0.074 0.001 0.193-0.001 0.434-0.003 0.672 0.569 0.091 0.22 0.225 0.546 0.367 0.889 0.285 0.695 0.601 1.463 0.656 1.574 0.083 0.166 0.138 0.36 0.028 0.581-0.017 0.033-0.032 0.065-0.047 0.095-0.083 0.17-0.144 0.294-0.285 0.459-0.055 0.065-0.113 0.134-0.17 0.204-0.114 0.139-0.228 0.278-0.328 0.377-0.166 0.165-0.339 0.345-0.145 0.677s0.859 1.419 1.846 2.298c1.060 0.946 1.982 1.345 2.449 1.548 0.091 0.040 0.165 0.072 0.219 0.099 0.332 0.166 0.525 0.138 0.719-0.083s0.829-0.969 1.051-1.301c0.221-0.332 0.442-0.277 0.746-0.166s1.935 0.913 2.267 1.079c0.065 0.032 0.125 0.062 0.181 0.089z"></path>
</symbol>
<symbol id="icon-Phone" viewBox="0 0 32 32">
<path d="M22.667 17.791l-4.695 2.352c-0.295 0.17-0.658 0.17-0.952 0-2.012-1.392-3.755-3.137-5.143-5.152-0.17-0.295-0.17-0.658 0-0.952l2.333-4.705-3.333-6.667h-8.21v0.952c0 14.202 11.513 25.714 25.714 25.714h0.952v-8.209l-6.667-3.333zM27.429 27.429c-12.416-0.487-22.37-10.441-22.857-22.857h5.124l2.381 4.762-1.905 3.81c-0.456 0.916-0.387 2.006 0.181 2.857 1.515 2.236 3.43 4.173 5.648 5.714 0.851 0.568 1.941 0.637 2.857 0.181l3.809-1.905 4.762 2.381v5.057z"></path>
</symbol>
<symbol id="icon-Rectangle" viewBox="0 0 32 32">
<path d="M31.799 8.358l-15.314 16.317c-0.268 0.285-0.702 0.285-0.97 0l-15.314-16.317c-0.268-0.285-0.268-0.748 0-1.033 0.129-0.137 0.303-0.214 0.485-0.214h30.629c0.379 0 0.686 0.327 0.686 0.731 0 0.194-0.072 0.38-0.201 0.517z"></path>
</symbol>
<symbol id="icon-Search" viewBox="0 0 32 32">
<path d="M13.64 24.613c-6.060 0-10.973-4.913-10.973-10.973s4.913-10.973 10.973-10.973c6.060 0 10.973 4.913 10.973 10.973 0 2.621-0.919 5.028-2.453 6.915l8.174 8.174c0.443 0.443 0.443 1.162 0 1.605s-1.162 0.443-1.605 0l-8.174-8.174c-1.887 1.533-4.294 2.453-6.915 2.453zM13.64 22.342c4.806 0 8.703-3.896 8.703-8.703s-3.896-8.703-8.703-8.703c-4.806 0-8.703 3.896-8.703 8.703s3.896 8.703 8.703 8.703z"></path>
</symbol>
<symbol id="icon-Telegram" viewBox="0 0 32 32">
<path d="M12.697 26.345c0.613 0 0.884-0.28 1.226-0.613l2.945-2.864 6.128 4.527c1.128 0.622 1.942 0.3 2.223-1.047l4.023-18.956c0.412-1.651-0.629-2.4-1.708-1.91l-23.621 9.108c-1.612 0.647-1.603 1.546-0.294 1.947l6.062 1.892 14.034-8.854c0.663-0.402 1.271-0.186 0.771 0.257l-11.371 10.262-0.417 6.251z"></path>
</symbol>
<symbol id="icon-Defaults_thin_left" viewBox="0 0 32 32">
<path d="M10.48 10.822c-0.249-0.208-0.653-0.208-0.902 0l-6.724 5.599-0.075 0.075c-0.174 0.211-0.145 0.503 0.086 0.686l6.724 5.338 0.090 0.060c0.253 0.139 0.596 0.111 0.812-0.078l0.072-0.075c0.166-0.21 0.134-0.496-0.093-0.676l-5.564-4.417 25.241-0.011c0.296-0.056 0.521-0.329 0.521-0.656 0-0.368-0.284-0.667-0.635-0.667h-24.869l5.317-4.426 0.074-0.074c0.172-0.207 0.148-0.493-0.074-0.678z"></path>
</symbol>
<symbol id="icon-Defaults_thin_right" viewBox="0 0 32 32">
<path d="M21.52 10.822c0.249-0.208 0.653-0.208 0.903 0l6.724 5.599 0.075 0.075c0.174 0.211 0.145 0.503-0.086 0.686l-6.724 5.338-0.090 0.060c-0.253 0.139-0.596 0.111-0.812-0.078l-0.072-0.075c-0.166-0.21-0.133-0.496 0.093-0.676l5.564-4.417-24.574-0.011c-0.296-0.056-0.521-0.329-0.521-0.656 0-0.368 0.284-0.667 0.635-0.667h24.202l-5.317-4.426-0.074-0.074c-0.172-0.207-0.148-0.493 0.074-0.678z"></path>
</symbol>
<symbol id="icon-Delete" viewBox="0 0 32 32">
<path d="M15.333 4.889c-0.613 0-1.111 0.498-1.111 1.111v1.111h4.444v-1.111c0-0.613-0.498-1.111-1.111-1.111h-2.222zM20.889 7.111h5.555c0.613 0 1.111 0.498 1.111 1.111s-0.498 1.111-1.111 1.111h-0.117l-1.893 17.034c-0.187 1.689-1.613 2.966-3.312 2.966h-9.356c-1.699 0-3.126-1.277-3.313-2.966l-1.892-17.034h-0.117c-0.613 0-1.111-0.498-1.111-1.111s0.498-1.111 1.111-1.111h5.556v-1.111c0-1.841 1.492-3.333 3.333-3.333h2.222c1.841 0 3.333 1.492 3.333 3.333v1.111zM24.092 9.333h-15.296l1.866 16.789c0.063 0.563 0.539 0.989 1.104 0.989h9.356c0.565 0 1.041-0.425 1.104-0.989l1.866-16.789zM14.222 12.667c-0.613 0-1.111 0.498-1.111 1.111v8.889c0 0.613 0.498 1.111 1.111 1.111s1.111-0.498 1.111-1.111v-8.889c0-0.613-0.498-1.111-1.111-1.111zM18.667 12.667c-0.613 0-1.111 0.498-1.111 1.111v8.889c0 0.613 0.498 1.111 1.111 1.111s1.111-0.498 1.111-1.111v-8.889c0-0.613-0.498-1.111-1.111-1.111z"></path>
</symbol>
<symbol id="icon-Filter" viewBox="0 0 32 32">
<path d="M3.619 8.447h1.721c0.423 1.503 1.794 2.542 3.356 2.542s2.933-1.039 3.356-2.542h16.33c0.526 0 0.952-0.426 0.952-0.952s-0.426-0.952-0.952-0.952h-16.324c-0.423-1.503-1.794-2.542-3.356-2.542s-2.933 1.039-3.356 2.542h-1.727c-0.526 0-0.952 0.426-0.952 0.952s0.426 0.952 0.952 0.952zM8.698 5.907c0.877 0 1.587 0.711 1.587 1.587s-0.711 1.587-1.587 1.587c-0.877 0-1.587-0.711-1.587-1.587s0.711-1.587 1.587-1.587zM28.381 15.431h-9.13c-0.52-1.343-1.811-2.228-3.251-2.228s-2.731 0.885-3.251 2.228h-9.13c-0.526 0-0.952 0.426-0.952 0.952s0.426 0.952 0.952 0.952h8.952c0.311 1.65 1.752 2.846 3.432 2.846s3.121-1.195 3.432-2.846h8.946c0.526 0 0.952-0.426 0.952-0.952s-0.426-0.952-0.952-0.952zM16 18.288c-0.877 0-1.587-0.711-1.587-1.587s0.711-1.587 1.587-1.587c0.877 0 1.587 0.711 1.587 1.587s-0.711 1.587-1.587 1.587zM26.66 24.32h1.721c0.526 0 0.952 0.426 0.952 0.952s-0.426 0.952-0.952 0.952h-1.727c-0.423 1.503-1.794 2.542-3.356 2.542s-2.933-1.039-3.356-2.542h-16.324c-0.526 0-0.952-0.426-0.952-0.952s0.426-0.952 0.952-0.952h16.33c0.423-1.503 1.794-2.542 3.356-2.542s2.933 1.039 3.355 2.542zM21.714 25.272c0 0.877 0.711 1.587 1.587 1.587s1.587-0.711 1.587-1.587c0-0.877-0.711-1.587-1.587-1.587s-1.587 0.711-1.587 1.587z"></path>
</symbol>
<symbol id="icon-Heart" viewBox="0 0 32 32">
<path d="M15.932 28l-11.050-10.998c-2.954-2.99-2.954-7.79 0-10.781 1.422-1.422 3.354-2.222 5.368-2.222s3.946 0.799 5.369 2.222l0.313 0.321 0.313-0.321c1.422-1.422 3.354-2.222 5.369-2.222s3.946 0.799 5.368 2.222c2.949 2.992 2.949 7.788 0 10.781l-11.050 10.998zM10.246 5.881c-1.513-0.005-2.965 0.598-4.028 1.672-2.219 2.253-2.219 5.863 0 8.116l9.713 9.666 9.713-9.666c2.219-2.253 2.219-5.863 0-8.116-1.067-1.064-2.514-1.663-4.023-1.663s-2.956 0.598-4.023 1.663l-1.668 1.644-1.658-1.635c-1.065-1.073-2.514-1.678-4.028-1.682z"></path>
</symbol>
<symbol id="icon-Icon" viewBox="0 0 32 32">
<path d="M6.089 4.571l-0.482-1.977c-0.376-1.525-1.721-2.594-3.264-2.594h-1.615v2.286h1.615c0.528-0.016 0.995 0.346 1.122 0.869l3.993 16.549 0.415 1.703c0.378 1.537 1.742 2.61 3.298 2.594h15.357v-2.286h-15.357c-0.528 0.016-0.995-0.346-1.122-0.869l-0.135-0.572 16.613-3.988c1.228-0.291 2.194-1.257 2.502-2.503l2.244-9.211h-25.183zM26.898 13.234c-0.104 0.417-0.429 0.74-0.841 0.834l-16.658 3.989-2.748-11.2h21.807l-1.559 6.377zM6.336 28.571c0-1.894 1.507-3.428 3.365-3.428s3.365 1.535 3.365 3.428c0 1.894-1.507 3.428-3.365 3.428s-3.365-1.535-3.365-3.428zM8.58 28.571c0 0.631 0.502 1.143 1.122 1.143s1.122-0.512 1.122-1.143c0-0.631-0.502-1.143-1.122-1.143s-1.122 0.512-1.122 1.143zM20.053 27.259c0.521-1.281 1.748-2.116 3.109-2.116 1.858 0 3.365 1.535 3.365 3.428 0 1.387-0.82 2.637-2.077 3.168s-2.705 0.237-3.668-0.743c-0.962-0.98-1.25-2.455-0.729-3.736zM22.041 28.571c0 0.631 0.502 1.143 1.122 1.143s1.122-0.512 1.122-1.143-0.502-1.143-1.122-1.143c-0.62 0-1.122 0.512-1.122 1.143z"></path>
</symbol>
<symbol id="icon-arrow" viewBox="0 0 18 32">
<path d="M2.265 0.353c-0.531-0.483-1.358-0.469-1.871 0.032s-0.528 1.309-0.033 1.827l14.368 14.033-14.368 13.542c-0.495 0.518-0.48 1.326 0.033 1.827s1.34 0.515 1.871 0.032l16.020-15.401-16.020-15.893z"></path>
</symbol>
<symbol id="icon-arrow-1" viewBox="0 0 18 32">
<path d="M16.020 0.353c0.531-0.483 1.358-0.469 1.871 0.032s0.528 1.309 0.033 1.827l-14.368 14.033 14.368 13.542c0.494 0.518 0.48 1.326-0.033 1.827s-1.34 0.515-1.871 0.032l-16.020-15.401 16.020-15.893z"></path>
</symbol>
<symbol id="icon-arrow-2" viewBox="0 0 19 32">
<path d="M16.748 3.414c0.781-0.781 0.781-2.047 0-2.828s-2.047-0.781-2.828 0l-13.333 13.333c-0.781 0.781-0.781 2.047 0 2.828l13.333 13.333c0.781 0.781 2.047 0.781 2.828 0s0.781-2.047 0-2.828l-11.919-11.919 11.919-11.919z"></path>
</symbol>
<symbol id="icon-arrow-3" viewBox="0 0 19 32">
<path d="M0.586 3.414c-0.781-0.781-0.781-2.047 0-2.828s2.047-0.781 2.828 0l13.333 13.333c0.781 0.781 0.781 2.047 0 2.828l-13.333 13.333c-0.781 0.781-2.047 0.781-2.828 0s-0.781-2.047 0-2.828l11.919-11.919-11.919-11.919z"></path>
</symbol>
<symbol id="icon-arrow-4" viewBox="0 0 55 32">
<path d="M46.719 28.71c1.339 1.339 3.51 1.339 4.848 0s1.339-3.51 0-4.849l-22.857-22.857c-1.339-1.339-3.51-1.339-4.849 0l-22.857 22.857c-1.339 1.339-1.339 3.51 0 4.849s3.51 1.339 4.849 0l20.433-20.433 20.433 20.433z"></path>
</symbol>
<symbol id="icon-arrow-5" viewBox="0 0 55 32">
<path d="M46.719 1.004c1.339-1.339 3.51-1.339 4.848 0s1.339 3.51 0 4.849l-22.857 22.857c-1.339 1.339-3.51 1.339-4.849 0l-22.857-22.857c-1.339-1.339-1.339-3.51 0-4.849s3.51-1.339 4.849 0l20.433 20.433 20.433-20.433z"></path>
</symbol>
<symbol id="icon-instagram" viewBox="0 0 32 32">
<path d="M16 2.881c4.275 0 4.781 0.019 6.462 0.094 1.563 0.069 2.406 0.331 2.969 0.55 0.744 0.288 1.281 0.638 1.837 1.194 0.563 0.563 0.906 1.094 1.2 1.838 0.219 0.563 0.481 1.412 0.55 2.969 0.075 1.688 0.094 2.194 0.094 6.463s-0.019 4.781-0.094 6.463c-0.069 1.563-0.331 2.406-0.55 2.969-0.288 0.744-0.637 1.281-1.194 1.837-0.563 0.563-1.094 0.906-1.837 1.2-0.563 0.219-1.413 0.481-2.969 0.55-1.688 0.075-2.194 0.094-6.463 0.094s-4.781-0.019-6.463-0.094c-1.563-0.069-2.406-0.331-2.969-0.55-0.744-0.288-1.281-0.637-1.838-1.194-0.563-0.563-0.906-1.094-1.2-1.837-0.219-0.563-0.481-1.413-0.55-2.969-0.075-1.688-0.094-2.194-0.094-6.463s0.019-4.781 0.094-6.463c0.069-1.563 0.331-2.406 0.55-2.969 0.288-0.744 0.638-1.281 1.194-1.838 0.563-0.563 1.094-0.906 1.838-1.2 0.563-0.219 1.412-0.481 2.969-0.55 1.681-0.075 2.188-0.094 6.463-0.094zM16 0c-4.344 0-4.887 0.019-6.594 0.094-1.7 0.075-2.869 0.35-3.881 0.744-1.056 0.412-1.95 0.956-2.837 1.85-0.894 0.888-1.438 1.781-1.85 2.831-0.394 1.019-0.669 2.181-0.744 3.881-0.075 1.713-0.094 2.256-0.094 6.6s0.019 4.887 0.094 6.594c0.075 1.7 0.35 2.869 0.744 3.881 0.413 1.056 0.956 1.95 1.85 2.837 0.887 0.887 1.781 1.438 2.831 1.844 1.019 0.394 2.181 0.669 3.881 0.744 1.706 0.075 2.25 0.094 6.594 0.094s4.888-0.019 6.594-0.094c1.7-0.075 2.869-0.35 3.881-0.744 1.050-0.406 1.944-0.956 2.831-1.844s1.438-1.781 1.844-2.831c0.394-1.019 0.669-2.181 0.744-3.881 0.075-1.706 0.094-2.25 0.094-6.594s-0.019-4.887-0.094-6.594c-0.075-1.7-0.35-2.869-0.744-3.881-0.394-1.063-0.938-1.956-1.831-2.844-0.887-0.887-1.781-1.438-2.831-1.844-1.019-0.394-2.181-0.669-3.881-0.744-1.712-0.081-2.256-0.1-6.6-0.1v0z"></path>
<path d="M16 7.781c-4.537 0-8.219 3.681-8.219 8.219s3.681 8.219 8.219 8.219 8.219-3.681 8.219-8.219c0-4.537-3.681-8.219-8.219-8.219zM16 21.331c-2.944 0-5.331-2.387-5.331-5.331s2.387-5.331 5.331-5.331c2.944 0 5.331 2.387 5.331 5.331s-2.387 5.331-5.331 5.331z"></path>
<path d="M26.462 7.456c0 1.060-0.859 1.919-1.919 1.919s-1.919-0.859-1.919-1.919c0-1.060 0.859-1.919 1.919-1.919s1.919 0.859 1.919 1.919z"></path>
</symbol>
<symbol id="icon-plus" viewBox="0 0 35 32">
<path d="M18.56 32c1.414 0 2.56-1.146 2.56-2.56v-11.113h11.113c1.285 0 2.327-1.042 2.327-2.327s-1.042-2.327-2.327-2.327h-11.113v-11.113c0-1.414-1.146-2.56-2.56-2.56s-2.56 1.146-2.56 2.56v11.113h-11.113c-1.285 0-2.327 1.042-2.327 2.327s1.042 2.327 2.327 2.327h11.113v11.113c0 1.414 1.146 2.56 2.56 2.56z"></path>
</symbol>
<symbol id="icon-minus" viewBox="0 0 176 32">
<path d="M12.8 16c0-7.069 5.731-12.8 12.8-12.8h134.4c7.069 0 12.8 5.731 12.8 12.8s-5.731 12.8-12.8 12.8h-134.4c-7.069 0-12.8-5.731-12.8-12.8z"></path>
</symbol>
<symbol id="icon-in" viewBox="0 0 32 32">
<path d="M7.264 9.934h-6.859v20.608h6.859v-20.608zM7.716 3.56c-0.045-2.021-1.489-3.56-3.836-3.56s-3.88 1.539-3.88 3.56c0 1.979 1.489 3.562 3.791 3.562h0.044c2.392 0 3.881-1.583 3.881-3.562zM32 18.726c0-6.33-3.384-9.276-7.897-9.276-3.642 0-5.272 2-6.182 3.403v-2.919h-6.86c0.090 1.934 0 20.608 0 20.608h6.86v-11.509c0-0.616 0.045-1.23 0.226-1.671 0.496-1.23 1.624-2.504 3.519-2.504 2.483 0 3.475 1.89 3.475 4.659v11.025h6.858l0-11.816z"></path>
</symbol>
<symbol id="icon-facebook" viewBox="0 0 16 32">
<path d="M9.929 32v-16.002h4.417l0.585-5.514h-5.003l0.008-2.76c0-1.438 0.137-2.209 2.202-2.209h2.761v-5.515h-4.418c-5.307 0-7.174 2.675-7.174 7.174v3.311h-3.308v5.514h3.308v16.001h6.621z"></path>
</symbol>
<symbol id="icon-Icon_mail" viewBox="0 0 38 32">
<path d="M19.199 13.737c3.271 0 19.175-8.944 19.175-8.944l0.026-1.598c0-1.764-1.432-3.196-3.201-3.196h-32c-1.767 0-3.199 1.432-3.199 3.196v1.424c0 0 16.078 9.118 19.199 9.118zM19.199 18.132c-3.121 0-19.175-8.544-19.174-8.544l-0.026 19.175c0 1.764 1.433 3.196 3.199 3.196h32c1.769 0 3.201-1.432 3.201-3.196l-0.026-19.175c0 0-15.754 8.544-19.175 8.544z"></path>
</symbol>
<symbol id="icon-serch" viewBox="0 0 32 32">
<path d="M12.541 25.081c-6.926 0-12.541-5.615-12.541-12.541s5.615-12.541 12.541-12.541c6.926 0 12.541 5.615 12.541 12.541 0 2.996-1.050 5.746-2.803 7.903l9.342 9.342c0.507 0.506 0.507 1.328 0 1.834s-1.328 0.507-1.834 0l-9.342-9.342c-2.157 1.753-4.907 2.803-7.903 2.803zM12.541 22.487c5.493 0 9.946-4.453 9.946-9.946s-4.453-9.946-9.946-9.946c-5.493 0-9.946 4.453-9.946 9.946s4.453 9.946 9.946 9.946z"></path>
</symbol>
<symbol id="icon-Stars" viewBox="0 0 32 32">
<path d="M16 0c8.837 0 16 7.163 16 16s-7.163 16-16 16c-8.837 0-16-7.163-16-16s7.163-16 16-16zM16 0.696c-8.452 0-15.304 6.852-15.304 15.304s6.852 15.304 15.304 15.304c8.452 0 15.304-6.852 15.304-15.304s-6.852-15.304-15.304-15.304zM22.571 8.666c0 3.086 2.573 3.184 2.859 3.184 0.167 0 0.31 0.147 0.31 0.318 0 0.196-0.143 0.343-0.31 0.343h-0.024c-0.286 0-2.859 0.098-2.859 3.184 0 0.196-0.143 0.343-0.286 0.294-0.167 0-0.31-0.147-0.31-0.318 0-3.086-2.549-3.184-2.859-3.184-0.167 0-0.31-0.147-0.31-0.318s0.119-0.294 0.286-0.318h0.024c0.286 0 2.859-0.098 2.859-3.184 0-0.171 0.143-0.318 0.31-0.318s0.31 0.147 0.31 0.318zM20.522 12.194c0.643 0.294 1.31 0.808 1.715 1.739 0.381-0.882 1.024-1.445 1.715-1.739-0.643-0.294-1.334-0.808-1.715-1.739-0.381 0.882-1.024 1.445-1.715 1.739zM19.853 17.402c0.096 0.025 0.215 0.075 0.263 0.175 0.072 0.1 0.072 0.225 0.024 0.325-0.072 0.1-0.168 0.175-0.287 0.175-0.551 0-5.268 0.225-5.268 5.947 0 0.175-0.144 0.325-0.311 0.325s-0.311-0.15-0.311-0.325c0-5.747-4.717-5.947-5.268-5.947h-0.024c-0.12 0-0.239-0.075-0.287-0.175s-0.048-0.225 0-0.325c0.007-0.008 0.015-0.017 0.022-0.028 0.018-0.025 0.040-0.054 0.073-0.072 0.048-0.050 0.12-0.075 0.192-0.075 0.527 0 5.268-0.2 5.268-5.947 0-0.175 0.144-0.325 0.311-0.325s0.311 0.15 0.311 0.325c0 5.747 4.741 5.947 5.292 5.947zM10.515 17.727c1.341 0.45 3.041 1.474 3.735 3.848 0.694-2.374 2.395-3.398 3.735-3.848-1.341-0.45-3.041-1.474-3.735-3.848-0.694 2.374-2.394 3.398-3.735 3.848z"></path>
</symbol>
<symbol id="icon-Photo" viewBox="0 0 32 32">
<path d="M16 0c8.837 0 16 7.163 16 16s-7.163 16-16 16c-8.837 0-16-7.163-16-16s7.163-16 16-16zM16 0.696c-8.452 0-15.304 6.852-15.304 15.304s6.852 15.304 15.304 15.304c8.452 0 15.304-6.852 15.304-15.304s-6.852-15.304-15.304-15.304zM21.844 12.648c-0.25-0.259-0.595-0.412-0.988-0.412h-1.976v-0.024c0-0.294-0.119-0.576-0.321-0.765-0.202-0.2-0.476-0.318-0.774-0.318h-3.571c-0.309 0-0.583 0.118-0.786 0.318s-0.321 0.471-0.321 0.765v0.024h-1.964c-0.393 0-0.738 0.153-0.988 0.412-0.25 0.247-0.417 0.6-0.417 0.976v5.858c0 0.388 0.155 0.729 0.417 0.976 0.25 0.247 0.607 0.412 0.988 0.412h9.713c0.393 0 0.738-0.153 0.988-0.412 0.25-0.247 0.417-0.6 0.417-0.976v-5.858c0-0.388-0.155-0.729-0.417-0.976zM21.642 19.482h-0.012c0 0.212-0.083 0.4-0.226 0.541s-0.333 0.224-0.548 0.224h-9.713c-0.214 0-0.405-0.082-0.548-0.224s-0.226-0.329-0.226-0.541v-5.858c0-0.212 0.083-0.4 0.226-0.541s0.333-0.223 0.548-0.223h2.297c0.178 0 0.321-0.141 0.321-0.318v-0.341c0-0.129 0.048-0.247 0.131-0.329s0.202-0.129 0.333-0.129h3.559c0.131 0 0.25 0.047 0.333 0.129s0.131 0.2 0.131 0.329v0.341c0 0.176 0.143 0.318 0.321 0.318h2.297c0.214 0 0.405 0.082 0.548 0.223s0.226 0.329 0.226 0.541v5.858zM16 13.913c-0.769 0-1.47 0.317-1.968 0.814-0.509 0.509-0.814 1.199-0.814 1.968s0.317 1.47 0.814 1.968c0.509 0.509 1.199 0.814 1.968 0.814s1.47-0.317 1.968-0.814c0.509-0.509 0.814-1.199 0.814-1.968s-0.317-1.47-0.814-1.968c-0.498-0.498-1.199-0.814-1.968-0.814zM17.538 18.245c-0.396 0.385-0.939 0.633-1.538 0.633s-1.142-0.249-1.538-0.633c-0.396-0.396-0.633-0.939-0.633-1.538s0.249-1.142 0.633-1.538c0.396-0.396 0.939-0.633 1.538-0.633s1.142 0.249 1.538 0.633c0.396 0.396 0.633 0.939 0.633 1.538 0.011 0.599-0.238 1.142-0.633 1.538zM20.174 14.609c0.384 0 0.696-0.311 0.696-0.696s-0.311-0.696-0.696-0.696c-0.384 0-0.696 0.311-0.696 0.696s0.311 0.696 0.696 0.696z"></path>
</symbol>
<symbol id="icon-Free" viewBox="0 0 32 32">
<path d="M16 0c8.837 0 16 7.163 16 16s-7.163 16-16 16c-8.837 0-16-7.163-16-16s7.163-16 16-16zM16 0.696c-8.452 0-15.304 6.852-15.304 15.304s6.852 15.304 15.304 15.304c8.452 0 15.304-6.852 15.304-15.304s-6.852-15.304-15.304-15.304zM10.212 18.048c-0.026 0.026-0.059 0.039-0.1 0.039h-0.501c-0.037 0-0.069-0.013-0.095-0.039s-0.039-0.058-0.039-0.095v-3.623c0-0.041 0.012-0.074 0.036-0.1s0.057-0.039 0.097-0.039h2.421c0.041 0 0.074 0.013 0.1 0.039s0.039 0.059 0.039 0.1v0.401c0 0.037-0.013 0.069-0.039 0.095s-0.059 0.039-0.1 0.039h-1.781v1.046h1.67c0.041 0 0.074 0.013 0.1 0.039s0.039 0.058 0.039 0.095v0.401c0 0.037-0.013 0.069-0.039 0.095s-0.059 0.039-0.1 0.039h-1.67v1.375c0 0.037-0.013 0.069-0.039 0.095zM13.574 18.048c-0.026 0.026-0.059 0.039-0.1 0.039h-0.512c-0.037 0-0.069-0.013-0.095-0.039s-0.039-0.058-0.039-0.095v-3.623c0-0.041 0.012-0.074 0.036-0.1s0.057-0.039 0.097-0.039h1.441c0.456 0 0.813 0.106 1.071 0.317s0.387 0.512 0.387 0.902c0 0.271-0.065 0.498-0.195 0.682s-0.312 0.316-0.545 0.398l0.807 1.419c0.011 0.022 0.017 0.043 0.017 0.061 0 0.033-0.012 0.061-0.036 0.083s-0.051 0.033-0.081 0.033h-0.512c-0.059 0-0.106-0.014-0.139-0.042s-0.063-0.064-0.089-0.109l-0.712-1.319h-0.762v1.336c0 0.037-0.013 0.069-0.039 0.095zM13.613 15.983h0.774c0.223 0 0.39-0.049 0.501-0.147s0.167-0.242 0.167-0.431c0-0.189-0.056-0.335-0.167-0.437s-0.278-0.153-0.501-0.153h-0.774v1.169zM19.35 17.953c0 0.041-0.013 0.073-0.039 0.097s-0.059 0.036-0.1 0.036h-2.499c-0.037 0-0.069-0.013-0.095-0.039s-0.039-0.058-0.039-0.095v-3.623c0-0.041 0.012-0.074 0.036-0.1s0.057-0.039 0.097-0.039h2.454c0.041 0 0.074 0.013 0.1 0.039s0.039 0.059 0.039 0.1v0.373c0 0.041-0.013 0.073-0.039 0.097s-0.059 0.036-0.1 0.036h-1.825v0.974h1.703c0.041 0 0.074 0.013 0.1 0.039s0.039 0.059 0.039 0.1v0.351c0 0.041-0.013 0.073-0.039 0.097s-0.059 0.036-0.1 0.036h-1.703v1.007h1.87c0.041 0 0.074 0.012 0.1 0.036s0.039 0.057 0.039 0.097v0.378zM22.817 17.953c0 0.041-0.013 0.073-0.039 0.097s-0.059 0.036-0.1 0.036h-2.499c-0.037 0-0.069-0.013-0.095-0.039s-0.039-0.058-0.039-0.095v-3.623c0-0.041 0.012-0.074 0.036-0.1s0.057-0.039 0.097-0.039h2.454c0.041 0 0.074 0.013 0.1 0.039s0.039 0.059 0.039 0.1v0.373c0 0.041-0.013 0.073-0.039 0.097s-0.059 0.036-0.1 0.036h-1.825v0.974h1.703c0.041 0 0.074 0.013 0.1 0.039s0.039 0.059 0.039 0.1v0.351c0 0.041-0.013 0.073-0.039 0.097s-0.059 0.036-0.1 0.036h-1.703v1.007h1.87c0.041 0 0.074 0.012 0.1 0.036s0.039 0.057 0.039 0.097v0.378z"></path>
</symbol>
<symbol id="icon-Icontext" viewBox="0 0 99 32">
<path d="M16 0c8.837 0 16 7.163 16 16s-7.163 16-16 16c-8.837 0-16-7.163-16-16s7.163-16 16-16zM16 0.696c-8.452 0-15.304 6.852-15.304 15.304s6.852 15.304 15.304 15.304c8.452 0 15.304-6.852 15.304-15.304s-6.852-15.304-15.304-15.304zM10.212 18.048c-0.026 0.026-0.059 0.039-0.1 0.039h-0.501c-0.037 0-0.069-0.013-0.095-0.039s-0.039-0.058-0.039-0.095v-3.623c0-0.041 0.012-0.074 0.036-0.1s0.057-0.039 0.097-0.039h2.421c0.041 0 0.074 0.013 0.1 0.039s0.039 0.059 0.039 0.1v0.401c0 0.037-0.013 0.069-0.039 0.095s-0.059 0.039-0.1 0.039h-1.781v1.046h1.67c0.041 0 0.074 0.013 0.1 0.039s0.039 0.058 0.039 0.095v0.401c0 0.037-0.013 0.069-0.039 0.095s-0.059 0.039-0.1 0.039h-1.67v1.375c0 0.037-0.013 0.069-0.039 0.095zM13.574 18.048c-0.026 0.026-0.059 0.039-0.1 0.039h-0.512c-0.037 0-0.069-0.013-0.095-0.039s-0.039-0.058-0.039-0.095v-3.623c0-0.041 0.012-0.074 0.036-0.1s0.057-0.039 0.097-0.039h1.441c0.456 0 0.813 0.106 1.071 0.317s0.387 0.512 0.387 0.902c0 0.271-0.065 0.498-0.195 0.682s-0.312 0.316-0.545 0.398l0.807 1.419c0.011 0.022 0.017 0.043 0.017 0.061 0 0.033-0.012 0.061-0.036 0.083s-0.051 0.033-0.081 0.033h-0.512c-0.059 0-0.106-0.014-0.139-0.042s-0.063-0.064-0.089-0.109l-0.712-1.319h-0.762v1.336c0 0.037-0.013 0.069-0.039 0.095zM13.613 15.983h0.774c0.223 0 0.39-0.049 0.501-0.147s0.167-0.242 0.167-0.431c0-0.189-0.056-0.335-0.167-0.437s-0.278-0.153-0.501-0.153h-0.774v1.169zM19.35 17.953c0 0.041-0.013 0.073-0.039 0.097s-0.059 0.036-0.1 0.036h-2.499c-0.037 0-0.069-0.013-0.095-0.039s-0.039-0.058-0.039-0.095v-3.623c0-0.041 0.012-0.074 0.036-0.1s0.057-0.039 0.097-0.039h2.454c0.041 0 0.074 0.013 0.1 0.039s0.039 0.059 0.039 0.1v0.373c0 0.041-0.013 0.073-0.039 0.097s-0.059 0.036-0.1 0.036h-1.825v0.974h1.703c0.041 0 0.074 0.013 0.1 0.039s0.039 0.059 0.039 0.1v0.351c0 0.041-0.013 0.073-0.039 0.097s-0.059 0.036-0.1 0.036h-1.703v1.007h1.87c0.041 0 0.074 0.012 0.1 0.036s0.039 0.057 0.039 0.097v0.378zM22.817 17.953c0 0.041-0.013 0.073-0.039 0.097s-0.059 0.036-0.1 0.036h-2.499c-0.037 0-0.069-0.013-0.095-0.039s-0.039-0.058-0.039-0.095v-3.623c0-0.041 0.012-0.074 0.036-0.1s0.057-0.039 0.097-0.039h2.454c0.041 0 0.074 0.013 0.1 0.039s0.039 0.059 0.039 0.1v0.373c0 0.041-0.013 0.073-0.039 0.097s-0.059 0.036-0.1 0.036h-1.825v0.974h1.703c0.041 0 0.074 0.013 0.1 0.039s0.039 0.059 0.039 0.1v0.351c0 0.041-0.013 0.073-0.039 0.097s-0.059 0.036-0.1 0.036h-1.703v1.007h1.87c0.041 0 0.074 0.012 0.1 0.036s0.039 0.057 0.039 0.097v0.378z"></path>
<path d="M39.692 13.217v-6.071h2.123c0.423 0 0.772 0.073 1.046 0.219 0.275 0.144 0.479 0.339 0.614 0.584 0.134 0.243 0.202 0.513 0.202 0.809 0 0.261-0.046 0.476-0.139 0.646-0.091 0.17-0.211 0.304-0.362 0.403-0.148 0.099-0.309 0.172-0.483 0.219v0.059c0.186 0.012 0.373 0.077 0.56 0.196s0.345 0.289 0.471 0.51 0.19 0.492 0.19 0.812c0 0.304-0.069 0.578-0.208 0.821s-0.357 0.436-0.655 0.578c-0.298 0.142-0.687 0.213-1.165 0.213h-2.194zM40.427 12.565h1.459c0.48 0 0.821-0.093 1.023-0.279 0.204-0.188 0.305-0.415 0.305-0.682 0-0.206-0.052-0.395-0.157-0.569-0.105-0.176-0.254-0.316-0.448-0.421-0.194-0.107-0.423-0.16-0.688-0.16h-1.494v2.111zM40.427 9.814h1.364c0.221 0 0.421-0.043 0.599-0.13 0.18-0.087 0.322-0.21 0.427-0.368 0.107-0.158 0.16-0.344 0.16-0.557 0-0.267-0.093-0.493-0.279-0.679-0.186-0.188-0.48-0.282-0.883-0.282h-1.387v2.016zM46.935 13.312c-0.439 0-0.817-0.097-1.135-0.29-0.316-0.196-0.56-0.468-0.732-0.818-0.17-0.352-0.255-0.761-0.255-1.227s0.085-0.877 0.255-1.233c0.172-0.358 0.411-0.636 0.717-0.836 0.308-0.202 0.668-0.302 1.079-0.302 0.237 0 0.471 0.040 0.703 0.119s0.442 0.207 0.631 0.385c0.19 0.176 0.341 0.409 0.454 0.7s0.169 0.648 0.169 1.073v0.296h-3.51v-0.605h2.798c0-0.257-0.051-0.486-0.154-0.688-0.101-0.202-0.245-0.361-0.433-0.477-0.186-0.117-0.405-0.175-0.658-0.175-0.279 0-0.52 0.069-0.723 0.207-0.202 0.136-0.357 0.314-0.465 0.534s-0.163 0.455-0.163 0.706v0.403c0 0.344 0.059 0.635 0.178 0.874 0.121 0.237 0.288 0.418 0.501 0.543 0.213 0.123 0.461 0.184 0.744 0.184 0.184 0 0.35-0.026 0.498-0.077 0.15-0.053 0.28-0.132 0.388-0.237 0.109-0.107 0.193-0.239 0.252-0.397l0.676 0.19c-0.071 0.229-0.191 0.431-0.359 0.605-0.168 0.172-0.376 0.306-0.623 0.403-0.247 0.095-0.525 0.142-0.833 0.142zM50.584 10.478v2.739h-0.7v-4.553h0.676v0.712h0.059c0.107-0.231 0.269-0.417 0.486-0.557 0.217-0.142 0.498-0.213 0.842-0.213 0.308 0 0.578 0.063 0.809 0.19 0.231 0.125 0.411 0.314 0.539 0.569 0.129 0.253 0.193 0.573 0.193 0.96v2.893h-0.7v-2.846c0-0.358-0.093-0.636-0.279-0.836-0.186-0.202-0.441-0.302-0.765-0.302-0.223 0-0.423 0.048-0.599 0.145-0.174 0.097-0.311 0.238-0.412 0.424s-0.151 0.411-0.151 0.676zM56.677 13.312c-0.439 0-0.817-0.097-1.135-0.29-0.316-0.196-0.56-0.468-0.732-0.818-0.17-0.352-0.255-0.761-0.255-1.227s0.085-0.877 0.255-1.233c0.172-0.358 0.411-0.636 0.717-0.836 0.308-0.202 0.668-0.302 1.079-0.302 0.237 0 0.471 0.040 0.703 0.119s0.442 0.207 0.631 0.385c0.19 0.176 0.341 0.409 0.454 0.7s0.169 0.648 0.169 1.073v0.296h-3.51v-0.605h2.798c0-0.257-0.051-0.486-0.154-0.688-0.101-0.202-0.245-0.361-0.433-0.477-0.186-0.117-0.405-0.175-0.658-0.175-0.279 0-0.52 0.069-0.723 0.207-0.202 0.136-0.357 0.314-0.465 0.534s-0.163 0.455-0.163 0.706v0.403c0 0.344 0.059 0.635 0.178 0.874 0.121 0.237 0.288 0.418 0.501 0.543 0.213 0.123 0.461 0.184 0.744 0.184 0.184 0 0.35-0.026 0.498-0.077 0.15-0.053 0.28-0.132 0.388-0.237 0.109-0.107 0.193-0.239 0.252-0.397l0.676 0.19c-0.071 0.229-0.191 0.431-0.359 0.605-0.168 0.172-0.376 0.306-0.623 0.403-0.247 0.095-0.525 0.142-0.833 0.142zM61.654 8.664v0.593h-2.455v-0.593h2.455zM59.935 13.217v-5.182c0-0.261 0.061-0.478 0.184-0.652s0.282-0.304 0.477-0.391c0.196-0.087 0.402-0.13 0.62-0.13 0.172 0 0.312 0.014 0.421 0.042s0.19 0.053 0.243 0.077l-0.202 0.605c-0.036-0.012-0.085-0.027-0.148-0.044-0.061-0.018-0.142-0.027-0.243-0.027-0.231 0-0.398 0.058-0.501 0.175-0.101 0.117-0.151 0.287-0.151 0.513v5.016h-0.7zM62.635 13.217v-4.553h0.7v4.553h-0.7zM62.991 7.905c-0.136 0-0.254-0.046-0.353-0.139-0.097-0.093-0.145-0.205-0.145-0.335s0.048-0.242 0.145-0.335c0.099-0.093 0.216-0.139 0.353-0.139s0.253 0.046 0.35 0.139c0.099 0.093 0.148 0.205 0.148 0.335s-0.049 0.242-0.148 0.335c-0.097 0.093-0.213 0.139-0.35 0.139zM66.596 8.664v0.593h-2.36v-0.593h2.36zM64.924 7.573h0.7v4.34c0 0.198 0.029 0.346 0.086 0.445 0.059 0.097 0.134 0.162 0.225 0.196 0.093 0.032 0.191 0.047 0.293 0.047 0.077 0 0.14-0.004 0.19-0.012 0.049-0.010 0.089-0.018 0.119-0.024l0.142 0.628c-0.047 0.018-0.114 0.036-0.199 0.053-0.085 0.020-0.193 0.030-0.323 0.030-0.198 0-0.391-0.043-0.581-0.127-0.188-0.085-0.344-0.214-0.468-0.388-0.123-0.174-0.184-0.393-0.184-0.658v-4.53zM70.792 9.684l-0.629 0.178c-0.039-0.105-0.097-0.206-0.175-0.305-0.075-0.101-0.178-0.184-0.308-0.249s-0.298-0.098-0.501-0.098c-0.279 0-0.511 0.064-0.697 0.193-0.184 0.126-0.276 0.288-0.276 0.483 0 0.174 0.063 0.311 0.19 0.412s0.324 0.185 0.593 0.252l0.676 0.166c0.407 0.099 0.71 0.25 0.91 0.454 0.2 0.202 0.299 0.461 0.299 0.78 0 0.261-0.075 0.494-0.225 0.7-0.148 0.206-0.355 0.368-0.623 0.486s-0.577 0.178-0.931 0.178c-0.464 0-0.849-0.101-1.153-0.302s-0.497-0.496-0.578-0.883l0.664-0.166c0.063 0.245 0.183 0.429 0.359 0.551 0.178 0.123 0.41 0.184 0.697 0.184 0.326 0 0.585-0.069 0.777-0.207 0.193-0.14 0.29-0.308 0.29-0.504 0-0.158-0.055-0.29-0.166-0.397-0.111-0.109-0.281-0.19-0.51-0.243l-0.759-0.178c-0.417-0.099-0.723-0.252-0.919-0.459-0.194-0.209-0.29-0.471-0.29-0.786 0-0.257 0.072-0.484 0.216-0.682 0.146-0.198 0.345-0.353 0.596-0.465 0.253-0.113 0.539-0.169 0.86-0.169 0.45 0 0.804 0.099 1.061 0.296 0.259 0.198 0.443 0.458 0.552 0.783zM41.316 25.834c-0.379 0-0.714-0.096-1.005-0.288-0.291-0.194-0.518-0.466-0.682-0.818-0.164-0.354-0.246-0.772-0.246-1.254 0-0.478 0.082-0.893 0.246-1.245s0.392-0.623 0.685-0.815c0.293-0.192 0.63-0.288 1.014-0.288 0.296 0 0.531 0.049 0.703 0.148 0.174 0.097 0.306 0.207 0.397 0.332 0.093 0.122 0.165 0.223 0.216 0.302h0.059v-2.241h0.7v6.071h-0.676v-0.7h-0.083c-0.051 0.083-0.124 0.188-0.219 0.314-0.095 0.125-0.23 0.236-0.406 0.335-0.176 0.097-0.41 0.145-0.703 0.145zM41.411 25.206c0.281 0 0.518-0.073 0.711-0.219 0.194-0.148 0.341-0.353 0.442-0.614 0.101-0.263 0.151-0.566 0.151-0.91 0-0.34-0.049-0.637-0.148-0.892-0.099-0.257-0.245-0.456-0.439-0.599-0.194-0.144-0.433-0.216-0.717-0.216-0.296 0-0.543 0.076-0.741 0.228-0.196 0.15-0.343 0.355-0.442 0.614-0.097 0.257-0.145 0.545-0.145 0.866 0 0.324 0.049 0.619 0.148 0.883 0.101 0.263 0.249 0.472 0.445 0.628 0.198 0.154 0.443 0.231 0.735 0.231zM46.691 25.834c-0.439 0-0.817-0.097-1.135-0.291-0.316-0.196-0.56-0.468-0.732-0.818-0.17-0.352-0.255-0.761-0.255-1.227s0.085-0.878 0.255-1.233c0.172-0.358 0.411-0.636 0.717-0.836 0.308-0.202 0.668-0.302 1.079-0.302 0.237 0 0.471 0.040 0.703 0.119s0.442 0.207 0.631 0.385c0.19 0.176 0.341 0.409 0.454 0.7s0.169 0.648 0.169 1.073v0.297h-3.51v-0.605h2.798c0-0.257-0.051-0.486-0.154-0.688-0.101-0.202-0.245-0.361-0.433-0.477-0.186-0.117-0.405-0.175-0.658-0.175-0.279 0-0.52 0.069-0.723 0.207-0.202 0.136-0.357 0.314-0.465 0.534s-0.163 0.455-0.163 0.706v0.403c0 0.344 0.059 0.635 0.178 0.875 0.121 0.237 0.288 0.418 0.501 0.543 0.213 0.122 0.461 0.184 0.744 0.184 0.184 0 0.35-0.026 0.498-0.077 0.15-0.053 0.28-0.132 0.388-0.237 0.109-0.107 0.193-0.239 0.252-0.397l0.676 0.19c-0.071 0.229-0.191 0.431-0.359 0.605-0.168 0.172-0.375 0.306-0.623 0.403-0.247 0.095-0.525 0.142-0.833 0.142zM52.866 22.206l-0.628 0.178c-0.039-0.105-0.098-0.206-0.175-0.305-0.075-0.101-0.178-0.184-0.308-0.249s-0.297-0.098-0.501-0.098c-0.279 0-0.511 0.064-0.697 0.193-0.184 0.126-0.276 0.288-0.276 0.483 0 0.174 0.063 0.311 0.19 0.412s0.324 0.185 0.593 0.252l0.676 0.166c0.407 0.099 0.71 0.25 0.91 0.454 0.2 0.202 0.299 0.461 0.299 0.78 0 0.261-0.075 0.494-0.225 0.7-0.148 0.206-0.356 0.368-0.623 0.486s-0.577 0.178-0.931 0.178c-0.464 0-0.849-0.101-1.153-0.302s-0.497-0.496-0.578-0.883l0.664-0.166c0.063 0.245 0.183 0.429 0.359 0.551 0.178 0.122 0.41 0.184 0.697 0.184 0.326 0 0.585-0.069 0.777-0.207 0.194-0.14 0.291-0.308 0.291-0.504 0-0.158-0.055-0.291-0.166-0.397-0.111-0.109-0.281-0.19-0.51-0.243l-0.759-0.178c-0.417-0.099-0.723-0.252-0.919-0.459-0.194-0.209-0.291-0.471-0.291-0.786 0-0.257 0.072-0.484 0.216-0.682 0.146-0.198 0.345-0.353 0.596-0.465 0.253-0.113 0.54-0.169 0.86-0.169 0.451 0 0.804 0.099 1.061 0.297 0.259 0.198 0.443 0.458 0.551 0.783zM55.852 25.834c-0.427 0-0.794-0.101-1.103-0.302s-0.545-0.479-0.711-0.833c-0.166-0.354-0.249-0.758-0.249-1.212 0-0.462 0.085-0.871 0.255-1.224 0.172-0.356 0.411-0.633 0.717-0.833 0.308-0.202 0.668-0.302 1.079-0.302 0.32 0 0.609 0.059 0.866 0.178s0.467 0.285 0.631 0.498 0.266 0.462 0.305 0.747h-0.7c-0.053-0.207-0.172-0.391-0.356-0.551-0.182-0.162-0.427-0.243-0.735-0.243-0.273 0-0.512 0.071-0.717 0.213-0.204 0.14-0.363 0.339-0.477 0.596-0.113 0.255-0.169 0.554-0.169 0.898 0 0.352 0.055 0.658 0.166 0.919 0.113 0.261 0.271 0.463 0.474 0.608 0.206 0.144 0.447 0.216 0.723 0.216 0.182 0 0.347-0.032 0.495-0.095s0.274-0.154 0.377-0.273c0.103-0.119 0.176-0.261 0.219-0.427h0.7c-0.039 0.269-0.137 0.511-0.293 0.726-0.154 0.213-0.359 0.383-0.614 0.51-0.253 0.125-0.547 0.187-0.883 0.187zM58.665 25.739v-4.553h0.676v0.688h0.047c0.083-0.225 0.233-0.408 0.451-0.548s0.462-0.21 0.735-0.21c0.051 0 0.116 0.001 0.193 0.003s0.135 0.005 0.175 0.009v0.711c-0.024-0.006-0.078-0.015-0.163-0.027-0.083-0.014-0.171-0.021-0.264-0.021-0.221 0-0.419 0.046-0.593 0.139-0.172 0.091-0.308 0.217-0.409 0.379-0.099 0.16-0.148 0.343-0.148 0.548v2.881h-0.7zM61.771 25.739v-4.553h0.7v4.553h-0.7zM62.126 20.427c-0.136 0-0.254-0.046-0.353-0.139-0.097-0.093-0.145-0.205-0.145-0.335s0.048-0.242 0.145-0.335c0.099-0.093 0.216-0.139 0.353-0.139s0.253 0.046 0.35 0.139c0.099 0.093 0.148 0.205 0.148 0.335s-0.049 0.242-0.148 0.335c-0.097 0.093-0.214 0.139-0.35 0.139zM63.752 27.447v-6.261h0.676v0.723h0.083c0.051-0.079 0.123-0.18 0.213-0.302 0.093-0.125 0.225-0.235 0.397-0.332 0.174-0.099 0.409-0.148 0.706-0.148 0.383 0 0.721 0.096 1.014 0.288s0.521 0.463 0.685 0.815c0.164 0.352 0.246 0.767 0.246 1.245 0 0.482-0.082 0.9-0.246 1.254-0.164 0.352-0.391 0.625-0.682 0.818-0.29 0.192-0.625 0.288-1.005 0.288-0.292 0-0.527-0.048-0.703-0.145-0.176-0.099-0.311-0.21-0.406-0.335-0.095-0.126-0.168-0.231-0.219-0.314h-0.059v2.407h-0.7zM64.439 23.462c0 0.344 0.050 0.647 0.151 0.91 0.101 0.261 0.248 0.465 0.442 0.614 0.194 0.146 0.431 0.219 0.711 0.219 0.293 0 0.537-0.077 0.732-0.231 0.198-0.156 0.346-0.366 0.445-0.628 0.101-0.265 0.151-0.559 0.151-0.883 0-0.32-0.049-0.609-0.148-0.866-0.097-0.259-0.244-0.463-0.442-0.614-0.196-0.152-0.442-0.228-0.738-0.228-0.285 0-0.524 0.072-0.717 0.216-0.194 0.142-0.34 0.342-0.439 0.599-0.099 0.255-0.148 0.552-0.148 0.892zM70.819 21.186v0.593h-2.359v-0.593h2.359zM69.147 20.095h0.699v4.34c0 0.198 0.029 0.346 0.086 0.445 0.059 0.097 0.134 0.162 0.225 0.196 0.093 0.032 0.191 0.047 0.294 0.047 0.077 0 0.14-0.004 0.19-0.012 0.049-0.010 0.088-0.018 0.118-0.024l0.143 0.628c-0.048 0.018-0.114 0.036-0.199 0.053-0.085 0.020-0.193 0.030-0.323 0.030-0.198 0-0.392-0.043-0.582-0.127-0.188-0.085-0.344-0.214-0.468-0.388-0.123-0.174-0.184-0.393-0.184-0.658v-4.53zM71.871 25.739v-4.553h0.7v4.553h-0.7zM72.227 20.427c-0.136 0-0.254-0.046-0.353-0.139-0.097-0.093-0.145-0.205-0.145-0.335s0.049-0.242 0.145-0.335c0.099-0.093 0.216-0.139 0.353-0.139s0.253 0.046 0.35 0.139c0.099 0.093 0.148 0.205 0.148 0.335s-0.049 0.242-0.148 0.335c-0.097 0.093-0.214 0.139-0.35 0.139zM75.702 25.834c-0.411 0-0.772-0.098-1.082-0.294-0.308-0.196-0.549-0.469-0.723-0.821-0.173-0.352-0.258-0.763-0.258-1.233 0-0.474 0.086-0.888 0.258-1.242 0.174-0.354 0.415-0.629 0.723-0.824 0.31-0.196 0.671-0.294 1.082-0.294s0.771 0.098 1.079 0.294c0.31 0.196 0.551 0.47 0.723 0.824 0.174 0.354 0.261 0.768 0.261 1.242 0 0.47-0.087 0.881-0.261 1.233-0.173 0.352-0.413 0.625-0.723 0.821-0.308 0.196-0.668 0.294-1.079 0.294zM75.702 25.206c0.312 0 0.569-0.080 0.771-0.24s0.351-0.371 0.447-0.631 0.145-0.543 0.145-0.848c0-0.304-0.049-0.588-0.145-0.851s-0.246-0.475-0.447-0.637c-0.202-0.162-0.458-0.243-0.771-0.243s-0.569 0.081-0.771 0.243c-0.202 0.162-0.351 0.374-0.448 0.637s-0.145 0.546-0.145 0.851 0.048 0.587 0.145 0.848c0.097 0.261 0.246 0.471 0.448 0.631s0.458 0.24 0.771 0.24zM79.533 23v2.739h-0.699v-4.553h0.675v0.712h0.060c0.106-0.231 0.269-0.417 0.486-0.557 0.218-0.142 0.498-0.213 0.842-0.213 0.308 0 0.578 0.063 0.809 0.19 0.231 0.125 0.411 0.314 0.54 0.569 0.128 0.253 0.193 0.573 0.193 0.96v2.893h-0.7v-2.846c0-0.358-0.093-0.636-0.279-0.836-0.186-0.202-0.44-0.302-0.765-0.302-0.223 0-0.423 0.048-0.599 0.145-0.174 0.097-0.311 0.238-0.412 0.424s-0.152 0.411-0.152 0.676z"></path>
</symbol>
<symbol id="icon-Logo" viewBox="0 0 109 32">
<path d="M6.322 8.495c0.776 0 1.448 0.097 2.017 0.291 0.569 0.181 1.060 0.44 1.474 0.776 0.815 0.659 1.345 1.584 1.59 2.773l-2.444 0.446c-0.207-0.659-0.53-1.19-0.97-1.59-0.427-0.414-0.963-0.621-1.61-0.621-0.879 0-1.59 0.368-2.133 1.105-0.582 0.802-0.873 1.914-0.873 3.336 0 1.409 0.259 2.515 0.776 3.316 0.517 0.789 1.222 1.183 2.114 1.183s1.564-0.213 2.017-0.64c0.453-0.44 0.679-1.002 0.679-1.687h2.463c0 1.409-0.452 2.502-1.358 3.278-0.892 0.763-2.12 1.144-3.685 1.144-1.668 0-2.993-0.582-3.976-1.745-0.996-1.19-1.493-2.806-1.493-4.848 0-2.069 0.511-3.685 1.532-4.848 0.983-1.112 2.276-1.668 3.879-1.668z"></path>
<path d="M17.004 8.747h2.87l4.131 12.587h-2.424l-0.873-2.715h-4.674l-0.892 2.715h-2.424l4.286-12.587zM16.616 16.892h3.53l-1.745-5.411-1.784 5.411z"></path>
<path d="M32.849 12.218c-0.207-1.099-0.983-1.649-2.327-1.649-0.659 0-1.177 0.136-1.552 0.407-0.362 0.259-0.543 0.575-0.543 0.95s0.116 0.672 0.349 0.892c0.246 0.207 0.621 0.401 1.125 0.582l2.735 1.067c0.931 0.362 1.648 0.821 2.153 1.377 0.504 0.543 0.756 1.228 0.756 2.056 0 1.138-0.427 2.043-1.28 2.715-0.853 0.659-2.069 0.989-3.646 0.989-1.396 0-2.528-0.343-3.394-1.028-0.97-0.75-1.48-1.81-1.532-3.181h2.269c0 1.034 0.537 1.687 1.61 1.959 0.323 0.090 0.75 0.136 1.28 0.136s1.021-0.129 1.474-0.388c0.452-0.271 0.679-0.627 0.679-1.067 0-0.453-0.123-0.795-0.368-1.028-0.246-0.246-0.646-0.472-1.202-0.679l-2.502-0.989c-0.97-0.375-1.713-0.815-2.23-1.319s-0.776-1.202-0.776-2.095c0-1.047 0.407-1.875 1.222-2.482 0.827-0.634 1.946-0.95 3.355-0.95 1.422 0 2.515 0.33 3.278 0.989 0.776 0.646 1.222 1.558 1.338 2.735h-2.269z"></path>
<path d="M45.216 12.218c-0.207-1.099-0.983-1.649-2.327-1.649-0.659 0-1.177 0.136-1.551 0.407-0.362 0.259-0.543 0.575-0.543 0.95s0.116 0.672 0.349 0.892c0.246 0.207 0.621 0.401 1.125 0.582l2.735 1.067c0.931 0.362 1.648 0.821 2.153 1.377 0.504 0.543 0.756 1.228 0.756 2.056 0 1.138-0.427 2.043-1.28 2.715-0.853 0.659-2.069 0.989-3.646 0.989-1.396 0-2.528-0.343-3.394-1.028-0.97-0.75-1.48-1.81-1.532-3.181h2.269c0 1.034 0.537 1.687 1.61 1.959 0.323 0.090 0.75 0.136 1.28 0.136s1.021-0.129 1.474-0.388c0.452-0.271 0.679-0.627 0.679-1.067 0-0.453-0.123-0.795-0.368-1.028-0.246-0.246-0.647-0.472-1.202-0.679l-2.502-0.989c-0.97-0.375-1.713-0.815-2.23-1.319s-0.776-1.202-0.776-2.095c0-1.047 0.407-1.875 1.222-2.482 0.827-0.634 1.946-0.95 3.355-0.95 1.422 0 2.515 0.33 3.278 0.989 0.776 0.646 1.222 1.558 1.338 2.735h-2.269z"></path>
<path d="M50.97 8.747h2.288v12.587h-2.288v-12.587z"></path>
<path d="M61.69 8.495c0.84 0 1.61 0.142 2.308 0.427 0.698 0.271 1.299 0.679 1.804 1.222 1.060 1.138 1.59 2.767 1.59 4.887 0 2.133-0.53 3.782-1.59 4.945-1.008 1.086-2.385 1.629-4.131 1.629-1.733 0-3.103-0.556-4.111-1.668-1.060-1.151-1.59-2.786-1.59-4.907 0-2.146 0.53-3.788 1.59-4.926 0.996-1.073 2.373-1.61 4.131-1.61zM65.025 15.069c0-1.448-0.304-2.56-0.912-3.336-0.595-0.789-1.403-1.183-2.424-1.183s-1.836 0.394-2.444 1.183c-0.608 0.776-0.911 1.888-0.911 3.336 0 1.435 0.304 2.541 0.911 3.316 0.608 0.763 1.422 1.144 2.444 1.144s1.829-0.381 2.424-1.144c0.608-0.776 0.912-1.881 0.912-3.316z"></path>
<path d="M74.482 8.747c1.422 0 2.528 0.349 3.316 1.047 0.802 0.685 1.202 1.674 1.202 2.967 0 1.28-0.401 2.269-1.202 2.967-0.789 0.685-1.894 1.028-3.316 1.028h-2.133v4.577h-2.308v-12.587h4.441zM74.482 14.759c0.711 0 1.248-0.187 1.61-0.562s0.543-0.853 0.543-1.435c0-0.595-0.181-1.080-0.543-1.455-0.362-0.388-0.899-0.582-1.61-0.582h-2.133v4.034h2.133z"></path>
<path d="M81.349 8.747h8.107v1.978h-5.818v3.316h5.45v1.978h-5.45v3.316h5.818v1.998h-8.107v-12.587z"></path>
<path d="M92.732 8.747h2.288v12.587h-2.288v-12.587z"></path>
<path d="M101.531 8.747h2.87l4.131 12.587h-2.424l-0.873-2.715h-4.674l-0.892 2.715h-2.424l4.286-12.587zM101.143 16.892h3.53l-1.745-5.411-1.784 5.411z"></path>
</symbol>
</defs>
</svg>
